<svg width="382" height="390" viewBox="0 0 382 390" fill="none" xmlns="http://www.w3.org/2000/svg">
<path d="M212.329 46.2799C212.329 47.2658 210.308 48.1256 207.29 48.5989C205.766 48.838 204.565 50.0383 204.326 51.5624C203.853 54.5811 202.993 56.602 202.007 56.602C201.021 56.602 200.162 54.5811 199.688 51.5625C199.449 50.0383 198.249 48.8378 196.725 48.599C193.704 48.1257 191.678 47.2659 191.678 46.2799C191.678 45.2885 193.702 44.4277 196.721 43.9576C198.247 43.72 199.45 42.5187 199.689 40.9928C200.162 37.9709 201.022 35.9502 202.007 35.9502C202.993 35.9502 203.853 37.9709 204.326 40.9929C204.565 42.5187 205.768 43.7197 207.294 43.9576C210.31 44.4278 212.329 45.2886 212.329 46.2799Z" fill="white"/>
<path d="M359.644 78.619C359.334 79.5548 357.145 79.7358 354.131 79.2362C352.609 78.984 351.092 79.7461 350.386 81.1178C348.988 83.8346 347.536 85.4828 346.6 85.173C345.664 84.8631 345.483 82.6743 345.983 79.66C346.235 78.1379 345.473 76.621 344.101 75.9151C341.382 74.5161 339.729 73.0629 340.039 72.127C340.351 71.1858 342.543 71.005 345.556 71.5078C347.08 71.7619 348.599 70.9996 349.306 69.6262C350.705 66.9063 352.156 65.2583 353.092 65.5683C354.028 65.8782 354.209 68.0668 353.708 71.0843C353.456 72.6078 354.219 74.126 355.593 74.8315C358.309 76.226 359.956 77.6779 359.644 78.619Z" fill="white"/>
<path d="M381.522 185.142C381.586 186.125 379.625 187.114 376.643 187.781C375.137 188.118 374.017 189.393 373.877 190.93C373.599 193.972 372.872 196.045 371.888 196.108C370.904 196.172 369.916 194.211 369.249 191.229C368.912 189.723 367.636 188.603 366.1 188.463C363.055 188.186 360.977 187.458 360.914 186.475C360.85 185.485 362.814 184.496 365.796 183.832C367.304 183.496 368.426 182.22 368.566 180.682C368.844 177.635 369.571 175.563 370.555 175.5C371.539 175.436 372.527 177.397 373.195 180.382C373.532 181.889 374.809 183.01 376.347 183.149C379.388 183.424 381.458 184.152 381.522 185.142Z" fill="white"/>
<path d="M109.915 187.458C109.915 187.458 56.8632 193.41 52.3237 207.054C43.0857 234.821 54.7007 290.837 66.6659 301.441C81.2254 314.343 138.466 303.469 138.466 303.469L109.915 187.458Z" fill="white"/>
<path d="M138.464 303.469C138.464 303.469 81.2238 314.343 66.6672 301.439C62.2701 297.543 57.9181 287.506 54.6303 274.997C48.9779 253.475 46.4828 224.616 52.3232 207.055C56.8632 193.41 109.916 187.459 109.916 187.459L128.114 261.409L138.464 303.469Z" fill="white"/>
<path d="M138.464 303.469C138.464 303.469 81.2238 314.343 66.6672 301.439C62.2701 297.543 57.9181 287.506 54.6303 274.997C48.9779 253.475 46.4828 224.616 52.3232 207.055C53.3844 203.856 57.1162 201.084 62.2037 198.707C78.8202 190.947 109.916 187.459 109.916 187.459L111.62 194.379L128.114 261.409L138.464 303.469Z" fill="white"/>
<path d="M111.621 194.379C87.6474 201.21 71.0794 200.282 62.2051 198.706C78.8216 190.947 109.918 187.459 109.918 187.459L111.621 194.379Z" fill="#E8E8E8"/>
<path d="M138.465 303.469C138.465 303.469 81.2243 314.343 66.6677 301.439C62.2706 297.543 57.9186 287.506 54.6309 274.997L128.115 261.409L138.465 303.469Z" fill="#E8E8E8"/>
<path d="M95.7885 309.481C83.2273 309.481 71.3226 307.881 65.5176 302.737C59.4408 297.352 53.2856 280.961 49.8372 260.978C46.0867 239.246 46.3939 219.392 50.6805 206.508C55.4325 192.225 104.179 186.359 109.722 185.737L111.234 185.567L140.586 304.83L138.79 305.171C137.335 305.448 115.734 309.481 95.7885 309.481ZM108.599 189.356C93.1658 191.234 57.2901 197.616 53.9681 207.601C49.9163 219.779 49.6484 239.513 53.2511 260.389C56.523 279.348 62.376 295.324 67.8153 300.144C80.1707 311.093 126.589 303.774 136.343 302.089L108.599 189.356Z" fill="#371A45"/>
<path d="M48.5306 257.334C51.3071 254.398 71.5639 252.04 71.5639 252.04C73.8279 251.968 75.8797 253.444 76.5559 255.637C79.0305 263.66 83.7905 282.456 76.694 289.602C70.8021 295.535 61.3011 294.345 55.6494 290.123C51.2397 286.828 49.4452 279.915 48.3312 272.927C47.1245 265.355 46.3638 259.625 48.5306 257.334Z" fill="white"/>
<path d="M48.3304 272.929C48.9011 276.533 49.6621 280.115 50.8681 283.19C51.992 286.082 53.5141 288.527 55.6496 290.122C61.3007 294.344 70.8019 295.535 76.6934 289.6C82.2596 283.995 80.5311 271.213 78.3335 262.098C78.3292 262.091 78.3307 262.085 78.3307 262.085C77.7286 259.586 77.0868 257.36 76.5566 255.636C75.8816 253.444 73.8274 251.965 71.5638 252.041C71.5638 252.041 51.3058 254.395 48.5275 257.335C46.3667 259.624 47.1227 265.357 48.3304 272.929Z" fill="white"/>
<path d="M50.8682 283.19C51.992 286.082 53.5141 288.527 55.6497 290.122C61.3007 294.344 70.8019 295.535 76.6935 289.6C82.2596 283.996 80.5311 271.213 78.3335 262.098C78.3392 262.483 78.5793 272.186 75.4185 271.797C72.9316 271.496 70.8708 266.712 70.7461 266.43C70.7687 267.061 71.3877 286.216 61.0807 286.36C56.4461 286.428 53.169 285.029 50.8682 283.19Z" fill="#E4E4E4"/>
<path d="M66.4411 295.396C62.1516 295.396 57.8565 293.933 54.6131 291.51C49.5381 287.718 47.7251 280.126 46.6211 273.199C45.2721 264.739 44.5889 258.981 47.2726 256.143C50.2505 252.995 66.4655 250.89 71.3642 250.319L71.5092 250.309C74.5503 250.226 77.3071 252.192 78.2118 255.126C81.3235 265.215 85.4234 283.269 77.9236 290.822C74.745 294.023 70.5955 295.396 66.4411 295.396ZM49.7895 258.524C48.0781 260.333 49.1674 267.165 50.0426 272.654C50.979 278.529 52.5805 285.667 56.6865 288.735C61.8867 292.619 70.332 293.549 75.4652 288.381C82.1039 281.696 76.7118 262.018 74.9011 256.146C74.4656 254.735 73.1685 253.77 71.724 253.77C71.7109 253.77 71.6982 253.77 71.6851 253.77C62.2612 254.873 51.2336 256.998 49.7895 258.524Z" fill="#371A45"/>
<path d="M62.3368 291.634C63.3251 291.786 64.5969 291.42 65.6506 290.729C66.7248 290.037 67.6637 289.036 68.4011 287.871C69.8975 285.531 70.6635 282.645 71.0056 279.732C71.1777 278.27 71.2499 276.784 71.2425 275.294C71.2243 273.807 71.151 272.301 71.0441 270.804C70.9274 269.306 70.7653 267.812 70.5273 266.327C70.2736 264.848 69.9924 263.359 69.4459 261.951C70.1149 263.31 70.5289 264.781 70.9138 266.247C71.2836 267.719 71.5784 269.21 71.8279 270.709C72.0667 272.211 72.2762 273.711 72.4194 275.238C72.5537 276.763 72.608 278.302 72.5554 279.85C72.4424 282.932 71.9235 286.109 70.3963 289.028C69.637 290.477 68.5911 291.843 67.2084 292.913C66.5178 293.445 65.7432 293.901 64.8823 294.219C64.0252 294.54 63.0837 294.732 62.0608 294.68L62.0257 294.678C61.1807 294.635 60.5304 293.915 60.5733 293.07C60.6162 292.226 61.336 291.575 62.181 291.618C62.233 291.621 62.2863 291.626 62.3368 291.634Z" fill="#371A45"/>
<path d="M83.0236 204.109C82.1268 203.963 81.0941 203.86 80.1115 203.775C79.1145 203.698 78.1112 203.636 77.1043 203.605C75.0911 203.542 73.0637 203.548 71.0375 203.662C69.0117 203.774 66.979 203.945 64.9584 204.236C62.9306 204.497 60.9221 204.895 58.9111 205.329C60.831 204.601 62.7756 203.901 64.7647 203.334C66.7469 202.737 68.766 202.255 70.8038 201.832C72.842 201.406 74.9057 201.087 76.9875 200.84C78.0284 200.715 79.0753 200.622 80.1281 200.546C81.1949 200.48 82.2129 200.423 83.3603 200.434C84.3826 200.444 85.2031 201.281 85.193 202.304C85.1829 203.326 84.346 204.147 83.3237 204.136C83.2323 204.136 83.1425 204.128 83.0547 204.114L83.0236 204.109Z" fill="#371A45"/>
<path d="M194.931 294.174C202.343 310.102 207.546 329.042 207.419 355.252C212.754 356.907 216.273 361.213 217.566 368.771C218.416 373.742 215.075 378.502 210.118 379.437C197.906 381.739 179.567 381.832 168.963 379.455C166.545 378.913 164.585 377.136 163.876 374.762C161.234 365.914 161.236 352.438 158.139 341.596L155.17 301.815L185.451 289.94L194.931 294.174Z" fill="#E8E8E8"/>
<path d="M188.722 382.993C181.195 382.993 173.927 382.394 168.573 381.194C165.509 380.506 163.055 378.237 162.17 375.272C160.848 370.844 160.183 365.43 159.479 359.698C158.745 353.722 157.986 347.544 156.426 342.085C156.393 341.968 156.371 341.849 156.362 341.728L153.394 301.948C153.335 301.168 153.792 300.442 154.52 300.157L184.8 288.282C185.245 288.109 185.741 288.119 186.177 288.314L195.657 292.548C196.049 292.723 196.365 293.034 196.546 293.423C205.135 311.88 209.167 331.159 209.202 353.996C214.649 356.181 218.051 361.043 219.321 368.471C220.331 374.37 216.35 380.074 210.448 381.187C204.061 382.391 196.261 382.993 188.722 382.993ZM159.902 341.283C161.504 346.963 162.272 353.215 163.014 359.264C163.7 364.843 164.347 370.113 165.583 374.253C166.1 375.985 167.545 377.312 169.353 377.717C179.495 379.991 197.635 379.977 209.788 377.686C213.792 376.931 216.494 373.067 215.81 369.071C214.673 362.426 211.756 358.462 206.891 356.953C206.143 356.72 205.634 356.026 205.638 355.243C205.747 332.647 201.919 313.65 193.595 295.528L185.406 291.871L157.044 302.993L159.902 341.283Z" fill="#371A45"/>
<path d="M208.488 356.677C205.74 358.368 202.693 359.297 199.689 359.667C196.676 360.039 193.685 359.887 190.795 359.408C193.721 359.297 196.614 358.838 199.297 357.93C201.976 357.026 204.427 355.647 206.351 353.827C207.07 353.147 208.205 353.178 208.885 353.897C209.565 354.617 209.534 355.751 208.815 356.432C208.726 356.516 208.631 356.589 208.531 356.651L208.488 356.677Z" fill="#371A45"/>
<path d="M173.199 340.359C167.935 340.359 162.564 339.75 157.357 338.484C156.401 338.251 155.814 337.288 156.047 336.332C156.279 335.376 157.242 334.79 158.199 335.022C175.241 339.167 194.019 335.951 203.861 327.202C204.596 326.549 205.722 326.614 206.375 327.35C207.029 328.085 206.963 329.211 206.228 329.865C198.63 336.618 186.243 340.359 173.199 340.359Z" fill="#371A45"/>
<path d="M162.889 307.159C164.154 327.073 159.481 346.28 148.64 364.752C157.296 367.976 155.45 379.292 149.459 385.034C147.88 386.542 145.784 387.379 143.593 387.414C130.062 387.628 110.926 383.704 98.1424 376.228C95.3044 374.56 93.7191 371.395 94.0813 368.16C94.0991 367.981 94.1228 367.803 94.1525 367.625C96.1712 356.327 100.939 345.794 104.513 332.713C105.042 330.784 105.238 328.771 105.107 326.776L104.127 311.434L103.516 301.815C83.3287 278.66 73.2352 213.349 88.0786 190.787L156.952 167.037L181.889 202.068L190.201 292.909C183.635 300.373 174.058 304.618 162.889 307.159Z" fill="white"/>
<path d="M162.889 307.159C164.154 327.073 159.481 346.28 148.64 364.752C157.296 367.976 155.45 379.292 149.459 385.034C147.88 386.542 145.784 387.379 143.593 387.414C130.062 387.628 110.926 383.704 98.1424 376.228C95.3044 374.56 93.7191 371.395 94.0813 368.16C101.07 375.973 112.719 379.227 123.471 380.676C129.397 381.471 135.999 381.78 140.737 378.134C145.475 374.489 145.814 365.434 140.155 363.505C137.84 362.715 134.782 363.065 133.482 360.993C132.51 359.444 133.11 357.385 133.452 356.326C134.973 351.621 140.99 333.254 142.702 321.409C143.293 317.322 143.244 314.896 142.109 312.503C139.765 307.562 134.196 305.708 131.421 304.784C130.293 304.408 124.778 302.665 117.765 304.19C111.1 305.64 106.711 309.253 104.745 311.107L104.127 311.434L103.516 301.815C83.3287 278.66 73.2352 213.349 88.0786 190.787L156.952 167.037L181.889 202.068L190.201 292.909C183.635 300.373 174.058 304.618 162.889 307.159Z" fill="#E8E8E8"/>
<path d="M142.584 389.204C129.966 389.204 110.782 385.684 97.2445 377.763C93.6128 375.638 91.6659 371.439 92.4006 367.314C93.6215 360.463 95.8225 353.93 98.1525 347.015C99.7294 342.335 101.36 337.496 102.794 332.245C103.267 330.516 103.447 328.713 103.331 326.887L101.775 302.523C92.2805 291.298 84.3033 269.858 80.8971 246.333C77.3399 221.764 79.4681 200.632 86.5897 189.807C86.806 189.479 87.1252 189.231 87.4972 189.102L156.371 165.353C157.117 165.094 157.944 165.36 158.402 166.003L183.339 201.034C183.522 201.291 183.633 201.591 183.662 201.905L191.974 292.747C192.019 293.234 191.861 293.718 191.538 294.085C185.579 300.862 176.806 305.601 164.75 308.55C165.68 327.725 161.107 346.353 151.143 363.972C153.724 365.489 155.445 367.891 156.068 370.901C157.11 375.947 154.899 382.286 150.69 386.317C148.797 388.131 146.287 389.153 143.624 389.196C143.283 389.201 142.935 389.204 142.584 389.204ZM89.2442 192.268C82.8482 202.543 81.0429 222.478 84.4229 245.823C87.7836 269.035 95.6135 290.041 104.858 300.644C105.115 300.939 105.268 301.311 105.292 301.701L106.886 326.66C107.027 328.879 106.807 331.074 106.231 333.184C104.769 338.535 103.122 343.424 101.529 348.153C99.242 354.939 97.0821 361.349 95.908 367.939C95.4337 370.601 96.6939 373.313 99.0436 374.689C112.367 382.484 131.461 385.825 143.567 385.633C145.329 385.606 146.983 384.935 148.226 383.745C151.543 380.568 153.374 375.469 152.579 371.623C152.058 369.103 150.524 367.353 148.018 366.42C147.524 366.237 147.137 365.844 146.961 365.348C146.784 364.852 146.836 364.304 147.103 363.85C157.64 345.902 162.353 326.866 161.111 307.271C161.056 306.399 161.641 305.616 162.493 305.422C174.198 302.757 182.669 298.46 188.356 292.296L180.158 202.708L156.273 169.155L89.2442 192.268Z" fill="#371A45"/>
<path d="M167.542 307.821C163.587 308.645 159.558 309.028 155.574 308.913C151.59 308.802 147.662 308.194 143.89 307.159C145.866 307.212 147.817 307.212 149.746 307.139C151.677 307.032 153.584 306.902 155.469 306.639C157.353 306.37 159.208 306.006 161.051 305.629C162.897 305.262 164.717 304.804 166.562 304.396L166.794 304.344C167.753 304.132 168.703 304.736 168.915 305.695C169.128 306.654 168.522 307.603 167.564 307.816C167.56 307.817 167.546 307.82 167.542 307.821Z" fill="#371A45"/>
<path d="M149.311 367.014C148.996 366.896 148.701 366.753 148.379 366.629C148.049 366.515 147.738 366.384 147.392 366.278C146.722 366.042 146.023 365.829 145.305 365.63C143.879 365.193 142.387 364.813 140.903 364.331C139.424 363.835 137.923 363.333 136.508 362.617C135.799 362.263 135.107 361.881 134.449 361.451L133.498 360.756L132.608 360.001C135.337 361.448 138.338 361.953 141.338 362.293C142.845 362.463 144.369 362.585 145.927 362.772C147.485 362.964 149.085 363.202 150.745 363.753C151.677 364.063 152.182 365.07 151.872 366.003C151.563 366.935 150.556 367.44 149.623 367.13C149.603 367.124 149.583 367.117 149.564 367.109L149.311 367.014Z" fill="#371A45"/>
<path d="M140.879 342.159C128.206 342.159 113.944 338.506 103.996 330.653C103.224 330.044 103.092 328.923 103.701 328.152C104.311 327.379 105.431 327.247 106.203 327.857C121.011 339.545 147.006 341.27 159.488 334.955C160.365 334.511 161.437 334.863 161.881 335.741C162.325 336.619 161.974 337.69 161.096 338.134C155.877 340.774 148.678 342.159 140.879 342.159Z" fill="#371A45"/>
<path d="M191.241 96.6255C192.103 111.706 189.169 127.09 182.187 141.307C180.761 144.206 179.177 147.051 177.419 149.834C176.568 151.19 175.664 152.534 174.729 153.871C171.89 157.885 168.785 161.6 165.448 165.013C162.579 167.962 159.533 170.682 156.353 173.174C152.515 176.184 148.466 178.853 144.261 181.183C142.724 182.027 141.17 182.829 139.599 183.588C110.807 197.423 75.6403 195.898 47.7135 176.563C6.56876 148.088 -3.26566 91.7593 25.7319 50.7523C31.3224 42.8584 37.9428 36.0911 45.2926 30.5459C46.1455 29.8897 47.0209 29.2555 47.9081 28.6404C50.2699 26.9791 52.6971 25.4379 55.1829 24.0203C60.933 20.7433 66.9965 18.1179 73.2409 16.1626C79.4815 14.2012 85.9201 12.9084 92.418 12.3074C94.484 12.115 96.5559 11.9902 98.6375 11.9394C101.757 11.8648 104.878 11.9399 108.008 12.1876C123.59 13.3774 139.043 18.5717 152.747 28.0608C176.416 44.4393 189.719 70.0328 191.241 96.6255Z" fill="white"/>
<path d="M99.6206 192.884C81.2797 192.884 63.0768 187.429 47.6066 176.718C27.7228 162.957 14.4615 142.307 10.2655 118.57C6.04561 94.698 11.484 70.5744 25.5784 50.6432C31.0875 42.8643 37.6822 36.052 45.1795 30.3952C45.9864 29.7743 46.8688 29.1311 47.8012 28.4853C50.1579 26.8275 52.6106 25.2702 55.0898 23.856C60.7967 20.6044 66.8849 17.9552 73.1849 15.9826C79.4256 14.021 85.8909 12.7217 92.4013 12.1199C94.4901 11.925 96.587 11.8009 98.6335 11.7506C101.815 11.6763 104.974 11.7581 108.023 11.9993C124.097 13.2268 139.6 18.727 152.856 27.9055C175.779 43.7689 189.839 68.8125 191.43 96.6149C192.311 112.029 189.174 127.512 182.357 141.391C180.912 144.328 179.305 147.203 177.579 149.935C176.788 151.195 175.906 152.518 174.884 153.98C172.08 157.944 168.951 161.7 165.584 165.146C162.771 168.037 159.704 170.788 156.471 173.322C152.686 176.29 148.609 178.99 144.353 181.348C142.82 182.19 141.248 183.001 139.682 183.758C126.965 189.869 113.254 192.884 99.6206 192.884ZM100.908 12.1013C100.155 12.1013 99.3993 12.11 98.6427 12.1285C96.6046 12.1784 94.5163 12.3019 92.436 12.4956C85.9521 13.0951 79.513 14.3898 73.2978 16.3432C67.0233 18.3077 60.9601 20.9459 55.277 24.1841C52.8079 25.5925 50.3653 27.1435 48.0173 28.7948C47.0891 29.4385 46.2118 30.0774 45.4081 30.6955C37.9406 36.3296 31.3732 43.1141 25.8866 50.8611C11.8509 70.7095 6.43534 94.7327 10.6373 118.504C14.8156 142.141 28.0212 162.704 47.8215 176.407C74.6801 195.004 109.816 197.69 139.517 183.417C141.078 182.664 142.643 181.856 144.17 181.016C148.408 178.669 152.468 175.981 156.237 173.025C159.458 170.501 162.511 167.761 165.313 164.882C168.667 161.45 171.783 157.709 174.575 153.762C175.593 152.307 176.471 150.989 177.259 149.733C178.978 147.012 180.579 144.149 182.017 141.224C188.805 127.403 191.93 111.985 191.052 96.6368C189.468 68.9509 175.468 44.0128 152.64 28.2161C139.439 19.0757 124.001 13.5981 107.994 12.376C105.682 12.193 103.307 12.1013 100.908 12.1013Z" fill="#371A45"/>
<path d="M47.713 176.561C75.6389 195.901 110.811 197.424 139.599 183.585C141.172 182.828 142.725 182.027 144.259 181.182C148.466 178.854 152.513 176.182 156.352 173.175C159.53 170.681 162.579 167.962 165.446 165.016C168.786 161.602 171.889 157.888 174.732 153.872C175.661 152.533 176.566 151.192 177.422 149.836C179.179 147.051 180.758 144.204 182.186 141.306C189.168 127.089 192.106 111.707 191.241 96.623C190.768 88.3383 189.15 80.1447 186.431 72.3003C186.923 86.7133 183.943 101.335 177.282 114.899C175.861 117.801 174.275 120.644 172.518 123.429C171.669 124.784 170.764 126.125 169.828 127.465C166.986 131.481 163.883 135.195 160.549 138.608C157.676 141.555 154.633 144.273 151.455 146.767C147.615 149.774 143.563 152.447 139.361 154.774C137.822 155.62 136.269 156.421 134.696 157.178C105.907 171.017 70.7414 169.493 42.8096 150.154C26.5124 138.877 15.1344 123.227 9.13086 105.897C10.0502 133.241 23.4263 159.755 47.713 176.561Z" fill="#E8E8E8"/>
<path d="M99.62 194.149C81.0243 194.149 62.5717 188.62 46.8856 177.759C26.722 163.804 13.2736 142.862 9.01857 118.79C4.73951 94.583 10.2533 70.1215 24.5442 49.9119C30.1294 42.0257 36.815 35.1195 44.4165 29.3845C45.2306 28.7577 46.1305 28.1025 47.0798 27.4444C49.4618 25.7693 51.9484 24.1899 54.4624 22.756C60.2481 19.4591 66.4198 16.774 72.8062 14.7742C79.131 12.7866 85.6846 11.4692 92.2845 10.8586C94.4012 10.6615 96.5271 10.5356 98.6022 10.4846C101.827 10.4098 105.03 10.4921 108.123 10.7375C124.417 11.9812 140.135 17.5578 153.576 26.8647C176.822 42.9513 191.08 68.348 192.693 96.5429C193.587 112.173 190.405 127.875 183.493 141.949C182.028 144.927 180.399 147.841 178.649 150.611C177.848 151.886 176.956 153.227 175.921 154.705C173.075 158.729 169.903 162.538 166.489 166.03C163.639 168.96 160.53 171.75 157.251 174.319C153.414 177.328 149.281 180.065 144.966 182.455C143.41 183.31 141.819 184.132 140.232 184.898C127.341 191.092 113.44 194.149 99.62 194.149ZM100.907 13.3668C100.164 13.3668 99.4191 13.376 98.6726 13.3941C96.6641 13.4428 94.6052 13.5651 92.5534 13.7559C86.1575 14.3474 79.807 15.624 73.6774 17.5508C67.4875 19.4885 61.5081 22.0902 55.9035 25.2839C53.4694 26.6719 51.0608 28.2021 48.7453 29.8303C47.8271 30.4669 46.9669 31.0931 46.1801 31.699C38.8071 37.2618 32.3305 43.9523 26.9196 51.5926C13.081 71.1628 7.74121 94.8473 11.8837 118.283C16.0028 141.585 29.0215 161.857 48.5417 175.366C75.0272 193.703 109.677 196.351 138.969 182.276C140.507 181.534 142.053 180.736 143.56 179.907C147.736 177.594 151.74 174.943 155.455 172.028C158.632 169.539 161.643 166.837 164.405 163.999C167.715 160.613 170.788 156.924 173.541 153.031C174.543 151.598 175.41 150.298 176.186 149.06C177.883 146.374 179.462 143.55 180.88 140.665C187.572 127.041 190.652 111.84 189.788 96.7085C188.226 69.4152 174.424 44.8302 151.919 29.2568C138.903 20.2441 123.68 14.843 107.897 13.6382C105.616 13.4578 103.273 13.3668 100.907 13.3668Z" fill="#371A45"/>
<path d="M99.6194 194.475C80.9585 194.475 62.4406 188.926 46.6994 178.027C26.4633 164.023 12.9671 143.006 8.69639 118.847C4.40225 94.5535 9.93552 70.005 24.2774 49.7235C29.8819 41.8101 36.591 34.8795 44.2194 29.1242C45.0352 28.4962 45.9391 27.8375 46.8933 27.1766C49.2819 25.4968 51.7771 23.9116 54.2999 22.4725C60.1059 19.1647 66.2993 16.4696 72.7081 14.4629C79.0542 12.4683 85.6309 11.1463 92.2536 10.534C94.3775 10.3363 96.5109 10.2098 98.5934 10.1589C101.83 10.0812 105.044 10.1665 108.148 10.4123C124.499 11.6607 140.273 17.2571 153.761 26.5963C177.09 42.7408 191.4 68.228 193.018 96.5245C193.915 112.211 190.722 127.968 183.785 142.093C182.315 145.081 180.68 148.006 178.924 150.785C178.121 152.064 177.225 153.41 176.188 154.892C173.331 158.932 170.147 162.754 166.721 166.258C163.861 169.198 160.742 171.997 157.452 174.576C153.601 177.595 149.453 180.342 145.123 182.74C143.562 183.599 141.965 184.423 140.373 185.192C127.437 191.407 113.488 194.475 99.6194 194.475ZM100.906 13.6933C100.166 13.6933 99.4237 13.702 98.6797 13.72C96.6791 13.7693 94.6274 13.8905 92.5829 14.0812C86.2098 14.6704 79.8821 15.9425 73.7744 17.8623C67.6065 19.7931 61.6486 22.3855 56.0643 25.5676C53.6392 26.9505 51.2396 28.4747 48.9324 30.0977C48.0166 30.732 47.1608 31.3553 46.3783 31.9577C39.0296 37.502 32.5767 44.1682 27.185 51.7813C13.3975 71.2795 8.07701 94.8771 12.2044 118.227C16.3081 141.442 29.2784 161.639 48.7265 175.098C75.1165 193.37 109.64 196.007 138.827 181.983C140.359 181.242 141.9 180.447 143.402 179.622C147.562 177.317 151.551 174.676 155.254 171.772C158.419 169.291 161.419 166.6 164.17 163.771C167.468 160.398 170.53 156.721 173.274 152.842C174.272 151.417 175.135 150.12 175.909 148.887C177.601 146.209 179.174 143.396 180.587 140.522C187.254 126.948 190.323 111.802 189.462 96.7273C187.906 69.5349 174.154 45.0408 151.733 29.5254C138.764 20.5457 123.597 15.1643 107.872 13.9636C105.598 13.7838 103.264 13.6933 100.906 13.6933Z" fill="#371A45"/>
<path d="M189.563 119.742C163.725 179.232 87.9401 195.157 50.8471 143.061C25.6112 107.619 41.2941 55.5006 77.3422 33.3986C103.579 17.3125 136.206 12.9413 172.221 46.3247C172.221 46.3247 185.846 63.5612 188.469 79.0301C191.091 94.499 191.006 110.001 191.006 110.001L189.563 119.742Z" fill="#371A45"/>
<g opacity="0.5">
<path d="M177.811 78.3123C183.94 74.3984 162.813 35.0139 123.89 30.7704C69.2311 24.8112 46.8595 82.4307 51.8576 87.1265C56.9148 91.8778 81.2335 49.6773 120.909 52.5579C151.657 54.7904 172.352 81.7986 177.811 78.3123Z" fill="white"/>
</g>
<path d="M50.8494 143.06C87.9401 195.156 163.726 179.229 189.565 119.744L189.856 117.768C145.367 157.541 77.0684 158.837 38.5723 106.863C39.1681 119.599 43.0635 132.122 50.8494 143.06Z" fill="#220F2D"/>
<path d="M109.926 185.724C105.546 185.724 101.186 185.391 96.8802 184.715C74.5298 181.201 55.3969 169.066 41.5492 149.623C28.8329 131.765 24.4381 109.128 29.1741 85.8828C34.4099 60.1862 50.3628 36.9802 71.8484 23.8071C83.824 16.4649 95.913 11.9614 107.779 10.4219L107.961 10.3982L108.144 10.4121C124.5 11.6611 140.274 17.2575 153.762 26.5966C177.091 42.7412 191.401 68.2284 193.02 96.5249C193.916 112.211 190.723 127.969 183.786 142.093C182.316 145.081 180.681 148.006 178.925 150.786C178.122 152.065 177.226 153.41 176.189 154.893C173.332 158.932 170.148 162.754 166.722 166.259L166.512 166.443C149.671 178.985 129.62 185.724 109.926 185.724ZM108.056 13.9787C96.7483 15.4751 85.1941 19.8036 73.7102 26.8444C53.0511 39.5105 37.7071 61.8471 32.6649 86.5944C28.1281 108.861 32.3138 130.511 44.4512 147.556C57.73 166.202 76.0508 177.834 97.4332 181.195C120.115 184.76 144.469 178.373 164.272 163.669C167.53 160.326 170.559 156.684 173.275 152.843C174.273 151.417 175.137 150.121 175.911 148.887C177.602 146.21 179.175 143.396 180.588 140.522C187.256 126.948 190.325 111.804 189.463 96.7278C187.907 69.5359 174.155 45.0413 151.734 29.5259C138.816 20.5811 123.716 15.2067 108.056 13.9787Z" fill="#371A45"/>
<path d="M110.378 176.312C86.0703 176.312 64.1765 164.854 49.3954 144.094C38.0507 128.161 34.1296 107.968 38.3544 87.2342C43.0235 64.3214 57.25 43.6275 76.4105 31.8798C109.499 11.5942 142.141 16.0136 173.432 45.018L173.618 45.2198C174.186 45.9382 187.556 62.9953 190.224 78.7323C192.842 94.1753 192.788 109.854 192.787 110.011L192.768 110.262L191.29 120.236L191.196 120.451C177.775 151.353 149.976 172.59 118.648 175.875C115.866 176.167 113.106 176.312 110.378 176.312ZM116.841 23.0236C104.085 23.0236 91.2092 26.9849 78.2726 34.9169C59.9383 46.1585 46.3206 65.9819 41.845 87.9456C37.8196 107.701 41.5316 126.908 52.2974 142.028C67.9703 164.041 92.0186 175.086 118.276 172.332C148.258 169.188 174.89 148.857 187.835 119.247L189.225 109.868C189.224 108.379 189.155 93.7385 186.711 79.3276C184.301 65.1075 172.028 48.9844 170.904 47.5331C153.249 31.2014 135.169 23.0236 116.841 23.0236Z" fill="#371A45"/>
<path d="M14.3458 160.99C22.8369 176.648 39.3112 184.737 51.1446 179.053C62.978 173.37 65.6863 156.068 57.1951 140.411C57.1438 140.312 57.0846 140.209 57.0276 140.112C48.4932 124.65 32.1462 116.703 20.3965 122.348C11.2548 126.738 7.55966 138.062 10.2635 150.204C11.0614 153.779 12.4151 157.43 14.3458 160.99Z" fill="white"/>
<path d="M14.3471 160.991C22.8381 176.648 39.3124 184.737 51.1458 179.054C62.9792 173.37 65.6875 156.069 57.1964 140.411C57.1451 140.312 57.0858 140.209 57.0288 140.113C56.5992 142.344 55.4326 144.899 52.4 145.683C47.0877 147.055 33.0051 141.128 33.0051 141.128C33.0051 141.128 23.1179 145 10.2646 150.204C11.0626 153.779 12.4164 157.43 14.3471 160.991Z" fill="#E8E8E8"/>
<path d="M42.9859 182.631C31.9446 182.632 19.737 174.673 12.7783 161.841C7.60948 152.31 6.22928 141.948 8.99147 133.414C10.8877 127.555 14.5642 123.174 19.623 120.744C32.2788 114.665 49.837 123.105 58.7602 139.561C63.929 149.092 65.3092 159.454 62.5467 167.988C60.6504 173.847 56.974 178.228 51.9151 180.658C49.1288 181.996 46.103 182.631 42.9859 182.631ZM28.6552 122.303C26.0315 122.303 23.4977 122.834 21.1653 123.955C17.0072 125.952 13.9695 129.602 12.3808 134.511C9.95332 142.01 11.2727 151.592 15.9098 160.143C23.9415 174.953 39.401 182.716 50.3727 177.447C54.5309 175.449 57.5685 171.799 59.1573 166.891C61.5847 159.392 60.2655 149.809 55.6284 141.258C49.3042 129.596 38.3728 122.303 28.6552 122.303Z" fill="#371A45"/>
<path d="M44.5962 177.999C53.4556 172.059 54.2453 157.709 46.3601 145.949C38.4749 134.188 24.9007 129.47 16.0413 135.41C7.18195 141.35 6.39222 155.699 14.2774 167.46C22.1626 179.22 35.7368 183.939 44.5962 177.999Z" fill="white"/>
<path d="M35.8114 180.744C30.1047 180.744 24.0749 178.102 18.9858 173.31C8.81571 163.734 5.60965 148.49 11.8387 139.329C14.4224 135.529 18.2393 133.251 22.8767 132.743C29.1391 132.058 35.9848 134.727 41.6595 140.072C51.829 149.647 55.035 164.891 48.8064 174.053C46.2227 177.853 42.406 180.13 37.7689 180.638C37.1224 180.709 36.4687 180.744 35.8114 180.744ZM24.8351 133.029C24.1915 133.029 23.5525 133.063 22.9197 133.133C18.4 133.629 14.6804 135.847 12.1634 139.549C6.03821 148.558 9.21945 163.575 19.2549 173.024C24.8464 178.289 31.5782 180.925 37.7263 180.248C42.2457 179.753 45.965 177.534 48.4817 173.832C54.607 164.823 51.4257 149.806 41.3905 140.357C36.375 135.634 30.4412 133.029 24.8351 133.029Z" fill="#371A45"/>
<path d="M51.5682 157.581C50.3766 152.874 47.8768 148.484 44.6012 144.861C46.4056 155.827 39.944 164.176 29.4343 163.885C22.643 163.701 15.7237 159.944 10.6582 154.336C10.7675 155.028 10.9199 155.736 11.0991 156.45C14.1393 168.434 25.6628 178.402 36.8391 178.713C48.0155 179.024 54.6053 169.559 51.5682 157.581Z" fill="#E8E8E8"/>
<path d="M36.8753 182.215C28.0748 182.217 18.0079 175.42 12.1126 164.652C7.70443 156.6 6.40688 147.699 8.64123 140.842C10.0647 136.473 12.793 133.234 16.5314 131.475C26.3237 126.862 40.3145 134.122 47.7205 147.651C52.1287 155.703 53.4262 164.604 51.1919 171.462C49.7684 175.83 47.0401 179.069 43.3017 180.829C41.3042 181.769 39.1306 182.215 36.8753 182.215ZM23.1025 133.61C21.3205 133.61 19.6149 133.96 18.0489 134.697C15.2216 136.029 13.1399 138.534 12.0283 141.945C10.0926 147.886 11.2921 155.735 15.2373 162.941C21.7559 174.849 33.6661 181.426 41.7845 177.606C44.6117 176.274 46.6935 173.768 47.8051 170.358C49.7408 164.417 48.5412 156.568 44.596 149.361C39.3346 139.75 30.5605 133.61 23.1025 133.61Z" fill="#371A45"/>
<g opacity="0.5">
<path d="M84.8062 150.073C88.6257 146.457 87.8145 139.398 82.9942 134.306C78.174 129.214 71.17 128.018 67.3505 131.634C63.5309 135.25 64.3422 142.309 69.1624 147.401C73.9827 152.492 80.9866 153.689 84.8062 150.073Z" fill="white"/>
</g>
<g opacity="0.5">
<path d="M98.0094 158.449C99.2347 156.149 98.0827 153.141 95.4365 151.732C92.7903 150.322 89.6518 151.044 88.4265 153.345C87.2013 155.645 88.3532 158.653 90.9994 160.062C93.6457 161.472 96.7842 160.749 98.0094 158.449Z" fill="white"/>
</g>
<path d="M172.504 259.112C172.504 259.112 178.87 259.152 180.857 256.758C180.857 256.758 189.601 260.675 184.384 268.699C180.378 274.86 168.095 274.518 168.095 274.518" fill="white"/>
<path d="M168.095 274.517C168.095 274.517 180.377 274.861 184.384 268.7C187.038 264.613 186.076 261.592 184.491 259.615C184.241 260.555 183.789 261.566 183.081 262.656C180.356 266.856 173.775 268.03 169.862 268.355L168.095 274.517Z" fill="#E8E8E8"/>
<path d="M168.495 276.127C168.254 276.127 168.1 276.124 168.051 276.122C167.165 276.098 166.468 275.36 166.492 274.474C166.516 273.588 167.258 272.874 168.139 272.913C171.31 273.001 180.163 272.246 183.039 267.824C184.309 265.87 184.717 264.077 184.25 262.495C183.706 260.648 182.086 259.364 181.067 258.714C178.319 260.642 173.553 260.745 172.495 260.717C171.609 260.712 170.894 259.988 170.9 259.102C170.906 258.219 171.623 257.507 172.505 257.507C172.529 257.507 172.557 257.507 172.584 257.507C174.919 257.507 178.602 256.963 179.622 255.733L180.401 254.795L181.513 255.294C181.7 255.377 186.091 257.386 187.33 261.587C188.074 264.111 187.536 266.798 185.731 269.574C181.695 275.779 170.865 276.127 168.495 276.127Z" fill="#371A45"/>
<path d="M172.735 282.482L135.844 287.45C131.478 288.039 127.42 284.934 126.83 280.546L124.184 260.84C123.668 256.998 125.976 253.402 129.492 252.172C129.99 251.994 130.513 251.871 131.058 251.796L167.944 246.828C172.315 246.239 176.373 249.344 176.958 253.733L179.057 269.34L179.609 273.438C180.199 277.827 177.101 281.893 172.735 282.482Z" fill="white"/>
<path d="M172.735 282.482L135.844 287.45C131.478 288.039 127.42 284.934 126.83 280.546L124.184 260.84C123.668 256.998 125.976 253.402 129.492 252.172C129.99 251.994 130.513 251.871 131.058 251.796L167.944 246.828C172.315 246.239 176.373 249.344 176.958 253.733L179.057 269.34L179.609 273.438C180.199 277.827 177.101 281.893 172.735 282.482Z" fill="white"/>
<path d="M124.185 260.84L125.333 269.393L126.831 280.546C127.42 284.934 131.478 288.042 135.845 287.452L172.737 282.484C177.103 281.895 180.2 277.829 179.611 273.441L179.059 269.342L178.567 265.688L176.961 253.734C176.372 249.346 172.318 246.239 167.947 246.828L131.06 251.796C130.514 251.87 129.988 251.994 129.492 252.169C125.977 253.4 123.67 257 124.185 260.84Z" fill="white"/>
<path d="M125.332 269.393L126.83 280.546C127.419 284.934 131.478 288.041 135.844 287.452L172.736 282.484C177.102 281.895 180.199 277.829 179.611 273.441L179.058 269.342L178.566 265.688C177.731 269.317 175.811 273.95 171.415 275.599C160.776 279.59 154.641 275.259 150.991 266.002C150.991 266.002 140.296 264.106 138.798 266.93C137.293 269.759 138.724 274.49 136.379 274.277C134.038 274.064 133.396 266.323 133.396 266.323L125.332 269.393Z" fill="#E8E8E8"/>
<path d="M133.677 289.288C131.863 289.288 130.103 288.694 128.629 287.57C126.851 286.214 125.71 284.254 125.414 282.051L122.42 259.758C121.807 255.198 125.019 250.989 129.578 250.375L168.991 245.066C171.193 244.767 173.386 245.352 175.163 246.708C176.94 248.064 178.082 250.024 178.378 252.228L181.372 274.52C181.985 279.08 178.774 283.289 174.214 283.903L134.8 289.211C134.425 289.263 134.05 289.288 133.677 289.288ZM170.108 248.201C169.879 248.201 169.65 248.216 169.42 248.247L130.007 253.556C127.201 253.934 125.225 256.525 125.601 259.331L128.596 281.623C128.777 282.977 129.481 284.182 130.576 285.017C131.671 285.853 133.019 286.211 134.372 286.031L173.785 280.722C176.591 280.344 178.567 277.754 178.19 274.948L175.196 252.655C175.014 251.302 174.311 250.096 173.216 249.261C172.307 248.567 171.223 248.201 170.108 248.201Z" fill="#371A45"/>
<path d="M124.184 260.839L124.529 263.418L125.266 268.902L125.658 271.792L126.835 280.547C126.989 281.715 127.396 282.798 127.986 283.738C129.61 286.332 132.643 287.878 135.844 287.452L145.265 286.042C140.899 286.626 136.841 283.519 136.251 279.136L135.304 272.086L135.031 270.07L133.606 259.424C133.085 255.543 135.447 251.915 139.029 250.723L131.059 251.796C126.692 252.385 123.595 256.451 124.184 260.839Z" fill="white"/>
<path d="M124.529 263.418L125.267 268.902L125.658 271.792L126.835 280.547C126.99 281.715 127.396 282.798 127.987 283.739C129.61 286.332 132.643 287.878 135.845 287.452L145.266 286.042C140.9 286.627 136.841 283.519 136.251 279.136L135.305 272.087C134.716 272.595 134.811 272.267 134.184 271.481C132.941 269.925 132.756 262.118 124.529 263.418Z" fill="#D8D8D8"/>
<path d="M134.768 289.129C132.68 289.129 130.657 288.446 128.96 287.151C126.904 285.582 125.583 283.312 125.242 280.76L122.595 261.052C121.884 255.782 125.584 250.914 130.843 250.203L138.813 249.131L139.534 252.245C136.61 253.219 134.786 256.149 135.198 259.212L137.845 278.92C138.072 280.623 138.954 282.137 140.328 283.186C141.693 284.226 143.369 284.673 145.049 284.448C152.851 283.397 167.426 281.433 168.78 281.248L170.48 281.012L170.698 282.614C170.849 283.755 170.142 284.177 169.301 284.382L169.305 284.416L136.065 289.041C135.631 289.1 135.198 289.129 134.768 289.129ZM133.494 253.086L131.272 253.385C127.768 253.859 125.302 257.106 125.777 260.624L128.424 280.334C128.651 282.036 129.533 283.55 130.907 284.598C132.272 285.639 133.948 286.085 135.628 285.861L138.102 285.516C136.205 283.959 134.988 281.781 134.663 279.346L132.016 259.639C131.699 257.278 132.269 254.97 133.494 253.086Z" fill="#371A45"/>
<path d="M149.499 267.48C149.592 268.209 149.327 274.228 149.327 274.228C149.327 274.228 147.469 274.468 145.188 274.761C142.338 275.129 139.646 272.464 139.177 268.81C138.707 265.156 140.637 261.896 143.488 261.528C145.411 261.281 147.627 260.995 147.627 260.995C147.627 260.995 149.346 266.292 149.499 267.48Z" fill="#22A7F0"/>
<path d="M149.499 267.48C149.592 268.209 149.327 274.228 149.327 274.228C149.327 274.228 147.469 274.468 145.188 274.761C142.338 275.129 139.646 272.464 139.177 268.81C138.707 265.156 140.637 261.896 143.488 261.528C145.411 261.281 147.627 260.995 147.627 260.995C147.627 260.995 149.346 266.292 149.499 267.48Z" fill="#1675DB"/>
<path d="M144.65 276C143.134 276 141.661 275.357 140.442 274.15C139.116 272.837 138.243 270.996 137.982 268.963C137.428 264.657 139.829 260.786 143.333 260.335L146.977 259.866C147.841 259.75 148.661 260.276 148.926 261.106C149.663 263.411 150.567 266.361 150.691 267.327C150.756 267.828 150.708 269.997 150.551 273.774C150.513 274.653 149.852 275.374 148.98 275.487L145.341 275.956C145.11 275.985 144.88 276 144.65 276ZM146.785 262.318L143.64 262.722C141.452 263.004 139.986 265.666 140.37 268.656C140.563 270.159 141.19 271.502 142.136 272.439C143.001 273.296 144.031 273.696 145.033 273.568L148.166 273.165C148.304 269.775 148.335 267.947 148.303 267.631C148.231 267.079 147.642 265.02 146.785 262.318Z" fill="#371A45"/>
<path d="M149.31 274.232C152.16 273.867 154.092 270.609 153.624 266.955C153.157 263.3 150.467 260.633 147.616 260.998C144.766 261.363 142.834 264.621 143.302 268.275C143.769 271.93 146.459 274.597 149.31 274.232Z" fill="#22A7F0"/>
<path d="M143.315 268.278C143.783 271.93 146.474 274.597 149.324 274.23C152.178 273.863 154.107 270.602 153.635 266.945C153.573 266.452 153.467 265.974 153.325 265.521C152.914 268.125 151.256 270.157 149.042 270.438C146.58 270.755 144.234 268.812 143.343 265.915C143.224 266.665 143.212 267.461 143.315 268.278Z" fill="#1675DB"/>
<path d="M143.315 268.278C143.346 268.527 143.389 268.771 143.445 269.009C143.643 266.073 145.396 263.695 147.804 263.387C150.46 263.047 152.982 265.337 153.684 268.612C153.723 268.069 153.707 267.513 153.635 266.946C153.168 263.293 150.476 260.627 147.626 260.993C144.777 261.364 142.847 264.622 143.315 268.278Z" fill="white"/>
<path d="M148.789 275.467C147.274 275.467 145.801 274.825 144.581 273.616C143.256 272.305 142.382 270.463 142.121 268.431C141.568 264.124 143.968 260.253 147.472 259.802C149.227 259.574 150.966 260.217 152.371 261.608C153.696 262.92 154.57 264.762 154.831 266.794C155.384 271.101 152.984 274.971 149.48 275.422C149.249 275.453 149.019 275.467 148.789 275.467ZM148.151 262.166C148.027 262.166 147.903 262.174 147.78 262.19C145.592 262.472 144.125 265.134 144.509 268.124C144.702 269.627 145.329 270.97 146.275 271.906C147.141 272.763 148.171 273.162 149.172 273.035C151.36 272.753 152.827 270.091 152.443 267.101H152.443C152.25 265.598 151.623 264.255 150.677 263.319C149.918 262.567 149.033 262.166 148.151 262.166Z" fill="#371A45"/>
<path d="M161.247 285.088C160.642 285.088 160.12 284.632 160.053 284.017L158.818 272.83C158.599 270.847 159.379 268.901 160.906 267.624L162.755 266.078C163.684 265.301 164.144 264.117 163.987 262.912L161.989 247.638C161.902 246.979 162.367 246.375 163.026 246.288C163.689 246.199 164.29 246.667 164.376 247.326L166.374 262.6C166.639 264.626 165.864 266.616 164.3 267.924L162.451 269.471C161.544 270.23 161.08 271.386 161.21 272.565L162.445 283.752C162.518 284.413 162.042 285.008 161.381 285.081C161.336 285.086 161.292 285.088 161.247 285.088Z" fill="#371A45"/>
<path d="M86.3853 265.412C86.3853 265.412 101.327 269.322 124.823 265.339C124.823 265.339 130.452 265.172 131.286 270.745C132.172 276.662 126.303 279.03 126.303 279.03C126.303 279.03 103.011 286.316 87.5118 278.242C80.6005 274.642 86.3853 265.412 86.3853 265.412Z" fill="white"/>
<path d="M87.5118 278.244C103.012 286.315 126.304 279.029 126.304 279.029C126.304 279.029 132.171 276.663 131.286 270.747C131.181 270.031 130.991 269.412 130.749 268.871C129.101 265.21 124.822 265.337 124.822 265.337C120.404 266.085 116.287 266.558 112.52 266.83C96.2376 267.988 86.386 265.411 86.386 265.411C86.386 265.411 80.6023 274.64 87.5118 278.244Z" fill="white"/>
<path d="M87.5118 278.244C103.012 286.315 126.304 279.03 126.304 279.03C126.304 279.03 132.171 276.664 131.286 270.748C131.181 270.032 130.991 269.413 130.749 268.872C130.698 269.056 129.21 273.603 122.817 274.808C114.108 276.449 102.443 277.137 103.089 267.124C92.5128 267.014 86.386 265.411 86.386 265.411C86.386 265.411 80.6022 274.641 87.5118 278.244Z" fill="#E8E8E8"/>
<path d="M105.706 283.672C99.3867 283.672 92.5947 282.7 86.7712 279.666C84.7048 278.59 83.3711 276.992 82.8073 274.918C81.5297 270.217 84.8828 264.788 85.0263 264.559C85.3986 263.966 86.1141 263.683 86.7913 263.858C86.9379 263.897 101.728 267.626 124.556 263.756C124.629 263.744 124.703 263.737 124.777 263.734C127.208 263.657 132.048 264.984 132.875 270.508C133.723 276.178 129.341 279.536 126.905 280.519C126.865 280.535 126.825 280.55 126.783 280.562C126.164 280.756 116.644 283.672 105.706 283.672ZM87.2078 267.244C86.3668 268.937 85.2959 271.849 85.907 274.083C86.232 275.27 86.9997 276.166 88.2544 276.819C102.565 284.273 124.345 277.942 125.755 277.52C126.289 277.284 130.351 275.336 129.7 270.983C129.134 267.206 125.7 266.953 124.961 266.943C105.003 270.308 91.2692 268.087 87.2078 267.244Z" fill="#371A45"/>
<path d="M360.363 157.875C373.072 159.318 369.285 146.217 361.197 140.912C352.71 133.638 348.027 127.176 344.166 122.098C338.565 114.732 329.613 110.642 320.388 111.371C316.741 111.659 313.499 112.24 310.238 112.633C301.795 113.652 293.281 111.186 286.834 105.64C278.473 98.4475 277.022 91.2165 262.637 88.0697C250.13 86.3327 243.363 89.1563 237.673 91.8756C231.715 94.7224 224.854 95.0214 218.67 92.7088C205.75 87.8769 189.464 86.75 194.933 95.3858L206.232 115.382L222.856 131.412L259.074 147.443L302.417 154.568L338.041 156.349L360.363 157.875Z" fill="#D9E73C"/>
<path d="M362.204 159.766C361.585 159.766 360.92 159.729 360.204 159.649L337.92 158.127L302.329 156.347C302.262 156.344 302.195 156.337 302.129 156.326L258.786 149.201C258.637 149.177 258.492 149.133 258.354 149.072L222.136 133.041C221.945 132.957 221.771 132.84 221.62 132.695L204.996 116.664C204.872 116.544 204.766 116.408 204.681 116.258L193.405 96.2998C191.321 92.9844 192.042 90.8593 193.017 89.6585C196.85 84.9412 211.169 88.002 219.294 91.0409C224.997 93.1729 231.416 92.8917 236.905 90.2685C243.118 87.301 250.241 84.5486 262.882 86.3055C262.928 86.3119 262.973 86.3199 263.018 86.3298C273.717 88.6706 277.765 93.2877 282.051 98.1762C283.804 100.175 285.616 102.243 287.996 104.29C293.979 109.436 302.007 111.835 310.026 110.865C311.159 110.728 312.29 110.569 313.437 110.407C315.596 110.102 317.828 109.787 320.248 109.596C330.081 108.812 339.554 113.09 345.585 121.02L346.369 122.054C350.014 126.867 354.547 132.851 362.272 139.488C368.143 143.392 371.663 150.609 369.967 155.301C369.335 157.05 367.498 159.766 362.204 159.766ZM302.607 152.795L338.131 154.571L360.485 156.098C360.512 156.1 360.538 156.102 360.565 156.105C362.898 156.368 365.842 156.236 366.617 154.089C367.629 151.289 365.056 145.573 360.221 142.402C360.157 142.36 360.096 142.314 360.039 142.264C351.971 135.35 347.291 129.171 343.53 124.205L342.749 123.176C337.456 116.215 329.153 112.466 320.529 113.147C318.218 113.33 316.04 113.637 313.935 113.934C312.764 114.099 311.609 114.262 310.452 114.402C301.444 115.491 292.413 112.787 285.673 106.99C283.103 104.78 281.207 102.616 279.372 100.524C275.158 95.717 271.827 91.9175 262.324 89.8243C250.694 88.2246 244.39 90.6407 238.441 93.483C232.084 96.5213 224.65 96.8477 218.047 94.3771C207.562 90.4569 197.469 89.8277 195.783 91.9048C195.304 92.4945 196.082 93.8692 196.439 94.4328C196.455 94.4583 196.47 94.4838 196.485 94.5099L207.656 114.279L223.866 129.911L259.588 145.723L302.607 152.795Z" fill="#371A45"/>
<path d="M239.692 92.4433C252.772 93.5844 261.575 99.13 259.358 104.826L256.423 112.365C255.761 114.068 254.188 115.593 251.959 116.864C247.932 119.156 241.761 120.621 234.944 120.802C232.915 120.857 230.831 120.8 228.726 120.616C215.65 119.476 206.847 113.93 209.064 108.234L211.999 100.695C214.216 94.9983 226.616 91.3026 239.692 92.4433Z" fill="#CD89FF"/>
<path d="M212.304 112.696L215.47 104.491C215.47 104.491 215.963 107.163 221.338 108.31C226.712 109.457 228.484 109.87 228.484 109.87L225.525 117.539C225.525 117.539 217.148 115.063 216.988 115.013C216.828 114.964 212.304 112.696 212.304 112.696Z" fill="#C4D414"/>
<path d="M255.952 111.409C255.952 111.409 254.066 115.942 252.62 119.555C248.691 121.754 242.668 123.158 236.016 123.331C237.288 120.115 239.583 114.317 239.583 114.317L255.952 111.409Z" fill="#A5B02A"/>
<path d="M257.421 105.955C259.562 98.2134 251.331 90.4679 239.036 88.6543C226.742 86.8408 215.039 91.646 212.898 99.3871C210.757 107.128 218.988 114.874 231.283 116.687C243.578 118.501 255.28 113.696 257.421 105.955Z" fill="#D5B4FB"/>
<path d="M252.417 117.973C250.81 118.885 248.899 119.679 246.722 120.328C241.293 121.946 234.717 122.524 228.206 121.956C221.695 121.388 215.987 119.738 212.132 117.31C207.985 114.698 206.413 111.432 207.704 108.114L210.639 100.574C211.93 97.2553 215.858 94.4697 221.698 92.7293C227.128 91.1112 233.703 90.5331 240.214 91.1012C244.674 91.4903 248.836 92.404 252.248 93.7434C252.851 93.9802 253.436 94.2324 253.986 94.4927C254.263 94.6236 254.535 94.7587 254.796 94.894C259.992 97.5944 262.151 101.257 260.716 104.943L257.782 112.483C256.972 114.565 255.124 116.437 252.417 117.973ZM213.342 100.809L210.407 108.35C209.565 110.515 210.937 112.926 214.173 114.964C217.749 117.216 223.102 118.752 229.245 119.288C235.388 119.824 241.545 119.292 246.581 117.792C251.139 116.433 254.236 114.413 255.079 112.248L258.014 104.707C258.972 102.245 257.058 99.4836 252.895 97.3202C252.656 97.1962 252.406 97.0725 252.153 96.9523C251.645 96.7119 251.104 96.4787 250.545 96.2592C247.334 94.9992 243.403 94.1381 239.176 93.7692C233.032 93.2333 226.876 93.7646 221.84 95.2654C217.282 96.6234 214.184 98.6443 213.342 100.809Z" fill="#32356B"/>
<path d="M220.843 111.192C216.295 109.908 208.872 106.32 211.198 100.388C212.544 97.2134 216.194 95.1109 219.357 93.8831C231.261 89.364 247.889 90.8245 256.052 96.5196C258.89 98.4929 261.728 102.295 258.607 106.451C254.713 111.46 245.985 112.963 240.71 113.274C240.321 113.287 240.436 112.759 240.821 112.704C244.712 112.189 248.819 111.331 252.634 109.506C256.462 107.681 259.451 104.728 257.811 101.392C256.333 98.5974 253.257 97.0277 250.186 95.8101C242.953 93.1939 234.227 92.4962 225.457 93.984C221.625 94.6635 214.606 96.5976 212.748 100.587C210.925 104.787 215.856 108.066 218.843 109.585C219.598 109.971 220.382 110.325 221.189 110.648C221.505 110.776 221.174 111.286 220.843 111.192Z" fill="#32356B"/>
<path d="M253.061 105.348C254.644 99.557 247.913 93.6608 238.027 92.1786C228.142 90.6964 218.845 94.1895 217.262 99.9806C215.679 105.772 222.409 111.668 232.295 113.15C242.18 114.632 251.478 111.139 253.061 105.348Z" fill="#BECB34"/>
<path d="M238.108 95.1032C248.554 96.0137 255.7 100.138 254.072 104.315C253.92 104.706 253.695 105.083 253.406 105.448C253.406 105.448 253.406 105.448 253.405 105.451C250.597 108.956 241.677 111.052 232.212 110.228C223.871 109.501 217.631 106.725 216.289 103.506C215.95 102.697 215.919 101.86 216.247 101.019C217.875 96.8415 227.665 94.1931 238.108 95.1032Z" fill="#A5B02A"/>
<path d="M237.872 97.5709C247.057 98.3705 253.592 101.794 253.544 105.52C253.544 105.52 253.544 105.52 253.542 105.524C250.742 109.014 241.847 111.101 232.409 110.279C224.091 109.555 217.868 106.791 216.529 103.586C216.538 103.556 216.548 103.529 216.56 103.499C218.183 99.34 227.725 96.6875 237.872 97.5709Z" fill="#D9E73C"/>
<path d="M244.937 103.76L243.206 103.684C243.02 104.471 242.464 105.052 241.525 105.391C240.555 105.742 239.155 105.882 237.351 105.803L236.641 105.772L237.312 103.437L237.8 103.458C238.994 103.511 239.625 103.342 239.693 102.963C239.722 102.803 239.646 102.683 239.467 102.602C239.289 102.521 239.071 102.476 238.813 102.464C238.355 102.444 237.858 102.54 237.314 102.754L233.259 104.366C231.601 105.03 229.941 105.343 228.36 105.273C227.505 105.236 226.829 105.094 226.34 104.85C225.859 104.611 225.557 104.315 225.43 103.965C225.306 103.626 225.34 103.272 225.523 102.906L224.117 102.845L225.017 101.875L226.324 101.932C226.992 101.346 227.851 100.94 228.905 100.694C229.928 100.454 231.09 100.366 232.413 100.425L231.35 102.198L230.628 102.166C230.31 102.152 230.038 102.183 229.811 102.259C229.582 102.336 229.418 102.446 229.32 102.589C229.21 102.749 229.206 102.874 229.312 102.963C229.419 103.053 229.608 103.104 229.879 103.116C230.267 103.133 230.957 102.963 231.923 102.616L235.647 101.271C236.151 101.088 236.724 100.941 237.367 100.828C238 100.716 238.684 100.677 239.426 100.71C240.538 100.758 241.41 100.954 242.056 101.305C242.725 101.669 243.123 102.122 243.24 102.675L244.868 102.747L244.937 103.76Z" fill="#1E1E1E"/>
<path d="M282.69 119.582C289.461 132.238 290.576 143.584 285.183 144.926L278.047 146.702C276.436 147.103 274.423 146.565 272.213 145.277C268.224 142.946 263.585 138.16 259.497 132.023C258.279 130.197 257.111 128.255 256.021 126.218C249.252 113.566 248.137 102.219 253.529 100.878L260.666 99.1016C266.058 97.7598 275.92 106.929 282.69 119.582Z" fill="#CD89FF"/>
<path d="M251.43 108.293L259.125 106.367C259.125 106.367 257.502 108.401 259.798 114.039C262.093 119.677 262.825 121.556 262.825 121.556L255.633 123.356C255.633 123.356 252.547 114.162 252.49 113.985C252.432 113.809 251.43 108.293 251.43 108.293Z" fill="#C4D414"/>
<path d="M278.21 144.316C278.21 144.316 273.79 145.303 270.3 146.141C266.405 143.901 261.876 139.3 257.885 133.401C260.982 132.641 266.566 131.272 266.566 131.272L278.21 144.316Z" fill="#A5B02A"/>
<path d="M283.668 145.714C288.301 144.213 287.273 132.056 281.372 118.561C275.471 105.066 266.932 95.3424 262.299 96.8434C257.667 98.3443 258.695 110.501 264.595 123.996C270.496 137.491 279.035 147.215 283.668 145.714Z" fill="#D5B4FB"/>
<path d="M271.68 146.355C270.089 145.422 268.408 144.142 266.677 142.532C262.359 138.516 258.125 132.835 254.754 126.534C251.384 120.233 249.258 114.027 248.77 109.058C248.244 103.713 249.685 100.339 252.825 99.5576L259.962 97.7813C263.102 96.9997 267.389 98.9482 272.034 103.268C276.352 107.284 280.586 112.965 283.956 119.266C286.265 123.582 288.023 127.935 289.039 131.854C289.218 132.547 289.376 133.232 289.508 133.89C289.574 134.221 289.635 134.55 289.689 134.869C290.76 141.228 289.374 145.374 285.886 146.242L278.749 148.018C276.779 148.509 274.358 147.924 271.68 146.355ZM261.361 100.397L254.224 102.173C252.175 102.683 251.235 105.368 251.645 109.539C252.098 114.148 254.099 119.96 257.28 125.905C260.46 131.85 264.417 137.176 268.422 140.901C272.047 144.272 275.301 145.913 277.35 145.403L284.487 143.627C286.817 143.047 287.696 139.659 286.837 134.564C286.788 134.272 286.732 133.97 286.672 133.667C286.55 133.059 286.404 132.425 286.237 131.783C285.281 128.096 283.62 123.985 281.431 119.894C278.251 113.949 274.294 108.624 270.289 104.899C266.665 101.528 263.41 99.8868 261.361 100.397Z" fill="#32356B"/>
<path d="M258.534 113.196C256.82 108.274 255.099 99.3567 260.728 97.9724C263.8 97.3248 267.435 99.4191 270.158 101.587C280.33 109.805 288.93 125.886 289.562 136.729C289.786 140.494 288.691 145.343 283.881 144.948C278.006 144.351 271.855 137.254 268.568 132.61C268.333 132.262 268.78 132.055 269.043 132.375C271.674 135.63 274.678 138.881 278.209 141.29C281.748 143.713 285.615 144.7 287.068 141.223C288.226 138.216 287.572 134.471 286.667 130.94C284.355 122.772 279.792 114.373 273.626 107.229C270.912 104.125 265.441 98.8462 261.485 99.5087C257.396 100.328 257.894 106.782 258.532 110.415C258.692 111.335 258.892 112.261 259.128 113.191C259.219 113.556 258.659 113.555 258.534 113.196Z" fill="#32356B"/>
<path d="M281.489 140.742C284.875 139.643 283.814 130.035 279.12 119.284C274.425 108.532 267.875 100.708 264.489 101.807C261.104 102.907 262.165 112.514 266.859 123.266C271.554 134.018 278.104 141.842 281.489 140.742Z" fill="#BECB34"/>
<path d="M280.158 119.494C285.567 129.589 286.739 138.569 282.779 139.553C282.409 139.645 282.007 139.663 281.576 139.615C281.576 139.615 281.576 139.615 281.573 139.616C277.412 139.123 270.72 132.205 265.82 123.058C261.502 114.998 259.882 107.646 261.425 104.512C261.812 103.722 262.399 103.198 263.196 103C267.156 102.016 274.752 109.402 280.158 119.494Z" fill="#A5B02A"/>
<path d="M278.142 120.786C282.898 129.65 284.218 137.647 281.497 139.81C281.497 139.81 281.497 139.81 281.493 139.811C277.344 139.32 270.67 132.431 265.783 123.322C261.477 115.295 259.861 107.973 261.4 104.852C261.427 104.841 261.452 104.835 261.48 104.828C265.43 103.848 272.888 110.993 278.142 120.786Z" fill="#D9E73C"/>
<path d="M277.748 131.202L276.813 129.53C276.146 129.822 275.414 129.644 274.636 128.964C273.831 128.26 272.931 127.029 271.955 125.286L271.572 124.601L273.618 123.847L273.882 124.318C274.527 125.47 275.008 125.964 275.317 125.803C275.447 125.735 275.489 125.593 275.444 125.376C275.4 125.161 275.308 124.929 275.168 124.68C274.921 124.238 274.569 123.828 274.105 123.444L270.638 120.59C269.218 119.426 268.045 118.052 267.191 116.525C266.729 115.7 266.443 114.981 266.337 114.377C266.232 113.783 266.27 113.324 266.446 112.997C266.617 112.68 266.888 112.501 267.253 112.457L266.493 111.099L267.699 111.37L268.405 112.632C269.205 112.912 269.985 113.478 270.763 114.322C271.519 115.142 272.246 116.182 272.961 117.459L271.09 117.511L270.7 116.814C270.528 116.507 270.351 116.27 270.166 116.102C269.98 115.932 269.809 115.843 269.651 115.835C269.474 115.827 269.383 115.898 269.38 116.051C269.377 116.204 269.449 116.412 269.595 116.674C269.805 117.049 270.321 117.596 271.121 118.297L274.207 120.998C274.626 121.364 275.058 121.815 275.507 122.351C275.948 122.88 276.367 123.5 276.768 124.216C277.37 125.29 277.729 126.225 277.848 127.04C277.972 127.884 277.878 128.527 277.55 128.964L278.43 130.537L277.748 131.202Z" fill="#1E1E1E"/>
<path d="M327.651 128.112C338.709 123.082 351.187 123.018 355.52 127.965L361.255 134.512C362.55 135.99 362.973 137.751 362.633 139.627C362.015 143.013 358.908 146.778 353.963 149.939C352.492 150.881 350.861 151.769 349.082 152.578C338.027 157.607 325.549 157.671 321.216 152.724L315.481 146.177C311.148 141.23 316.596 133.141 327.651 128.112Z" fill="#CD89FF"/>
<path d="M328.914 158.318L323.032 151.745C323.032 151.745 326.041 153.255 331.033 151.767C336.026 150.279 337.706 149.811 337.706 149.811L343.205 155.955C343.205 155.955 334.739 157.833 334.575 157.867C334.411 157.901 328.914 158.318 328.914 158.318Z" fill="#C4D414"/>
<path d="M355.533 128.981C355.533 128.981 359.168 133.294 362.111 136.706C361.472 140.228 358.263 144.144 353.156 147.429C350.525 144.4 345.781 138.939 345.781 138.939L355.533 128.981Z" fill="#A5B02A"/>
<path d="M355.091 125.59C350.916 119.488 338.979 119.722 328.429 126.113C317.878 132.504 312.709 142.632 316.884 148.734C321.058 154.836 332.995 154.601 343.546 148.21C354.097 141.819 359.266 131.692 355.091 125.59Z" fill="#D5B4FB"/>
<path d="M364.128 140.195C363.878 141.544 363.275 142.945 362.319 144.364C359.935 147.902 355.592 151.229 350.091 153.73C344.59 156.232 338.554 157.626 333.094 157.654C327.221 157.685 322.598 156.116 320.076 153.238L314.345 146.696C311.822 143.817 311.846 140.136 314.411 136.329C316.795 132.79 321.138 129.464 326.639 126.962C330.407 125.248 334.503 124.032 338.483 123.444C339.187 123.34 339.893 123.255 340.581 123.191C340.927 123.159 341.274 123.132 341.613 123.11C348.37 122.674 353.853 124.257 356.654 127.455L362.386 133.997C363.968 135.802 364.548 137.925 364.128 140.195ZM316.628 145.658L322.36 152.199C324.005 154.078 327.578 155.141 332.161 155.117C337.225 155.091 342.873 153.776 348.063 151.416C353.254 149.055 357.33 145.948 359.542 142.665C361.544 139.694 361.748 136.913 360.102 135.035L354.371 128.493C352.499 126.357 348.15 125.291 342.737 125.641C342.427 125.661 342.108 125.686 341.791 125.715C341.155 125.774 340.502 125.853 339.85 125.949C336.106 126.502 332.239 127.653 328.667 129.277C323.477 131.637 319.4 134.745 317.189 138.027C315.187 140.998 314.982 143.779 316.628 145.658Z" fill="#32356B"/>
<path d="M334.181 149.474C329.38 150.611 319.963 151.423 315.439 146.233C313.094 143.41 313.628 140.306 314.72 138.031C318.94 129.543 333.067 123.123 345.277 123.453C349.514 123.563 355.689 124.953 357.73 129.257C360.091 134.504 355.08 139.46 351.418 142.039C351.137 142.222 350.665 141.802 350.899 141.591C353.296 139.489 355.495 137.05 356.447 134.067C357.411 131.077 356.543 127.673 351.768 126.074C347.69 124.781 343.7 125.06 340.086 125.582C331.842 126.989 324.501 130.407 319.442 135.372C317.264 137.562 314.001 142.057 316.822 145.678C319.892 149.433 327.096 149.519 330.966 149.245C331.946 149.177 332.914 149.074 333.867 148.939C334.242 148.887 334.532 149.392 334.181 149.474Z" fill="#32356B"/>
<path d="M351.333 127.807C348.251 123.278 338.88 123.793 330.402 128.957C321.925 134.122 317.551 141.979 320.634 146.508C323.716 151.037 333.087 150.522 341.565 145.358C350.042 140.193 354.416 132.336 351.333 127.807Z" fill="#BECB34"/>
<path d="M330.189 130.531C339.073 126.484 348.868 126.172 352.069 129.832C352.368 130.174 352.599 130.539 352.767 130.925C352.767 130.925 352.767 130.925 352.77 130.927C354.363 134.646 349.828 140.117 341.779 143.784C334.685 147.015 327.009 147.867 322.574 146.212C321.458 145.797 320.546 145.223 319.901 144.486C316.7 140.826 321.308 134.577 330.189 130.531Z" fill="#A5B02A"/>
<path d="M332.184 132.268C340.042 128.683 348.685 128.153 352.635 130.812C352.635 130.812 352.635 130.812 352.637 130.815C354.235 134.55 349.686 140.046 341.612 143.729C334.496 146.975 326.795 147.831 322.346 146.168C322.32 146.143 322.3 146.119 322.277 146.093C319.066 142.416 323.503 136.227 332.184 132.268Z" fill="#D9E73C"/>
<path d="M345.051 135.226L343.573 135.697C344.343 136.366 344.575 136.989 344.218 137.54C343.849 138.11 342.89 138.648 341.349 139.138L340.744 139.331L338.556 137.309L338.973 137.176C339.992 136.852 340.302 136.527 339.914 136.211C339.751 136.078 339.55 136.008 339.311 136C339.074 135.992 338.846 136.023 338.626 136.093C338.235 136.217 337.948 136.444 337.762 136.778L336.39 139.273C335.834 140.296 334.867 141.048 333.517 141.478C332.788 141.711 332.08 141.807 331.403 141.767C330.738 141.729 330.15 141.59 329.64 141.357C329.144 141.131 328.759 140.846 328.479 140.505L327.279 140.888L326.869 139.857L327.985 139.502C327.837 138.841 328.051 138.263 328.61 137.748C329.152 137.249 329.982 136.825 331.111 136.465L332.327 138.17L331.711 138.366C331.439 138.453 331.257 138.56 331.164 138.689C331.07 138.819 331.066 138.954 331.154 139.096C331.253 139.254 331.397 139.352 331.586 139.389C331.776 139.427 331.988 139.409 332.219 139.335C332.55 139.229 332.905 138.886 333.275 138.32L334.693 136.134C334.884 135.837 335.172 135.547 335.556 135.262C335.933 134.982 336.437 134.742 337.07 134.54C338.019 134.238 338.947 134.123 339.875 134.199C340.836 134.277 341.684 134.507 342.424 134.902L343.814 134.459L345.051 135.226Z" fill="#1E1E1E"/>
<path d="M308.205 117.544C321.474 118.212 330.769 123.447 328.97 129.233L326.589 136.891C326.051 138.62 324.583 140.205 322.434 141.559C318.551 144.001 312.443 145.692 305.587 146.121C303.546 146.249 301.442 146.268 299.307 146.16C286.041 145.492 276.746 140.257 278.545 134.471L280.926 126.814C282.725 121.028 294.939 116.876 308.205 117.544Z" fill="#CD89FF"/>
<path d="M282.227 139.113L284.787 130.816C284.787 130.816 285.485 133.463 290.97 134.411C296.456 135.36 298.266 135.707 298.266 135.707L295.873 143.463C295.873 143.463 287.271 141.298 287.107 141.254C286.943 141.211 282.227 139.113 282.227 139.113Z" fill="#C4D414"/>
<path d="M325.76 135.623C325.76 135.623 324.207 140.258 323.027 143.95C319.229 146.307 313.255 147.938 306.549 148.35C307.584 145.065 309.45 139.141 309.45 139.141L325.76 135.623Z" fill="#A5B02A"/>
<path d="M327.179 129.96C328.928 122.215 320.181 115.034 307.643 113.921C295.106 112.807 283.524 118.183 281.775 125.928C280.026 133.673 288.772 140.854 301.31 141.967C313.848 143.08 325.43 137.705 327.179 129.96Z" fill="#D5B4FB"/>
<path d="M322.978 142.652C321.428 143.624 319.563 144.489 317.419 145.217C312.071 147.035 305.489 147.853 298.884 147.52C292.279 147.187 286.4 145.742 282.33 143.45C277.952 140.984 276.117 137.771 277.165 134.401L279.546 126.742C280.594 123.372 284.339 120.439 290.092 118.484C295.44 116.667 302.022 115.849 308.627 116.182C313.152 116.409 317.415 117.174 320.956 118.391C321.582 118.606 322.191 118.838 322.765 119.079C323.054 119.2 323.338 119.325 323.611 119.451C329.055 121.967 331.51 125.557 330.346 129.301L327.965 136.959C327.308 139.073 325.588 141.016 322.978 142.652ZM282.288 126.88L279.907 134.539C279.223 136.738 280.791 139.102 284.208 141.026C287.983 143.152 293.495 144.496 299.727 144.81C305.958 145.124 312.122 144.368 317.083 142.682C321.573 141.156 324.539 139.02 325.223 136.821L327.604 129.162C328.382 126.662 326.242 123.966 321.881 121.95C321.631 121.835 321.37 121.72 321.105 121.609C320.575 121.386 320.012 121.172 319.432 120.973C316.1 119.827 312.073 119.107 307.785 118.891C301.553 118.578 295.389 119.333 290.428 121.019C285.939 122.545 282.972 124.681 282.288 126.88Z" fill="#32356B"/>
<path d="M290.696 136.998C286.013 135.876 278.257 132.55 280.147 126.522C281.262 123.292 284.779 121.053 287.874 119.708C299.528 114.748 316.4 115.609 325.065 121.019C328.076 122.893 331.228 126.6 328.4 130.878C324.858 136.039 316.176 137.86 310.882 138.363C310.491 138.39 310.566 137.858 310.95 137.789C314.833 137.131 318.907 136.122 322.613 134.155C326.332 132.188 329.119 129.12 327.21 125.837C325.507 123.091 322.286 121.63 319.097 120.521C311.606 118.162 302.756 117.779 294.03 119.588C290.22 120.408 283.292 122.6 281.725 126.665C280.209 130.94 285.43 134.046 288.557 135.46C289.348 135.82 290.165 136.146 291.003 136.441C291.332 136.557 291.037 137.081 290.696 136.998Z" fill="#32356B"/>
<path d="M322.727 129.59C324.02 123.792 316.898 118.352 306.819 117.439C296.74 116.526 287.522 120.487 286.229 126.285C284.936 132.083 292.058 137.523 302.137 138.436C312.216 139.348 321.434 135.388 322.727 129.59Z" fill="#BECB34"/>
<path d="M306.871 120.253C317.472 120.787 324.991 124.661 323.67 128.907C323.546 129.303 323.349 129.689 323.086 130.065C323.086 130.065 323.086 130.065 323.085 130.069C320.522 133.683 311.69 136.108 302.086 135.624C293.622 135.198 287.119 132.643 285.519 129.466C285.115 128.667 285.02 127.829 285.286 126.974C286.608 122.729 296.274 119.72 306.871 120.253Z" fill="#A5B02A"/>
<path d="M306.796 122.729C316.12 123.198 322.971 126.394 323.209 130.132C323.209 130.132 323.209 130.132 323.208 130.136C320.651 133.737 311.842 136.152 302.261 135.67C293.818 135.245 287.331 132.699 285.736 129.534C285.742 129.503 285.75 129.476 285.76 129.446C287.078 125.216 296.496 122.211 306.796 122.729Z" fill="#D9E73C"/>
<path d="M314.456 128.868L312.699 128.826C312.58 129.625 312.069 130.224 311.15 130.586C310.2 130.96 308.797 131.129 306.965 131.085L306.245 131.068L306.718 128.693L307.214 128.705C308.425 128.734 309.049 128.551 309.085 128.167C309.1 128.004 309.013 127.884 308.824 127.806C308.637 127.728 308.413 127.686 308.15 127.68C307.686 127.669 307.192 127.775 306.66 128.003L302.702 129.713C301.084 130.417 299.433 130.766 297.828 130.727C296.961 130.706 296.265 130.576 295.749 130.339C295.242 130.108 294.91 129.814 294.751 129.462C294.596 129.122 294.599 128.763 294.752 128.39L293.325 128.356L294.151 127.357L295.477 127.389C296.101 126.783 296.933 126.356 297.978 126.086C298.991 125.823 300.159 125.712 301.501 125.744L300.581 127.558L299.849 127.54C299.526 127.532 299.254 127.569 299.031 127.651C298.806 127.733 298.65 127.847 298.563 127.994C298.466 128.158 298.474 128.285 298.589 128.373C298.704 128.461 298.9 128.509 299.176 128.516C299.569 128.526 300.252 128.34 301.198 127.969L304.844 126.536C305.338 126.341 305.905 126.181 306.545 126.054C307.175 125.928 307.864 125.875 308.616 125.893C309.745 125.921 310.644 126.101 311.328 126.444C312.036 126.798 312.479 127.248 312.645 127.806L314.298 127.846L314.456 128.868Z" fill="#1E1E1E"/>
<path d="M199.701 118.351C198.998 111.194 193.764 102.32 193.764 94.0073C204.646 107.256 211.381 103.913 224.185 105.014C232.741 105.75 240.541 110.239 245.53 117.229C248.425 121.286 251.465 125.745 256.731 129.865C262.448 134.338 269.586 136.673 276.839 136.372C285.984 135.992 296.123 133.223 309.747 135.119C314.585 135.792 319.252 137.382 323.406 139.952C334.239 146.656 343.929 157.719 364.76 158.131C359.289 163.409 351.55 166.569 342.198 168.224L336.145 177.023C379.279 258.505 304.411 330.166 215.72 305.716C204.675 302.671 194.124 297.972 184.739 291.401C123.254 248.351 139.85 156.28 197.274 127.437L199.701 118.351Z" fill="#ECF39D"/>
<path d="M244.866 117.856C245.183 118.125 245.506 118.385 245.832 118.638C245.474 118.123 245.121 117.612 244.771 117.108C242.86 114.355 240.511 112.006 237.863 110.122C239.722 112.712 241.906 115.348 244.866 117.856Z" fill="#181A4D"/>
<path d="M337.241 167.234C346.186 165.607 353.589 162.5 358.823 157.312C349.101 157.115 341.919 154.423 335.906 150.954C334.859 152.646 332.966 155.198 329.857 157.312C324.426 161.007 318.849 160.943 316.795 160.814C316.846 161.946 316.897 163.078 316.948 164.21C356.099 244.303 288.145 314.743 207.643 290.709C197.619 287.717 188.042 283.097 179.524 276.638C169.637 269.141 161.985 260.127 156.358 250.219C162.329 264.722 172.235 277.96 186.622 288.31C195.599 294.769 205.692 299.389 216.257 302.382C301.096 326.415 372.711 255.975 331.451 175.882L337.241 167.234Z" fill="#181A4D"/>
<path d="M250.756 312.348C239.081 312.348 227.131 310.709 215.246 307.433C203.519 304.2 192.911 299.297 183.717 292.859C156.121 273.538 141.736 242.662 144.249 208.147C145.492 191.067 150.875 174.414 159.816 159.988C168.926 145.289 181.341 133.625 195.759 126.21L197.895 118.211C197.559 115.351 196.458 112.116 195.295 108.698C193.666 103.913 191.982 98.965 191.982 94.0069C191.982 93.2549 192.455 92.5835 193.163 92.3301C193.871 92.0756 194.663 92.2953 195.14 92.8763C203.231 102.726 208.671 102.809 216.905 102.933C219.109 102.966 221.607 103.004 224.338 103.239C233.408 104.019 241.661 108.741 246.98 116.194L247.451 116.855C250.203 120.723 253.05 124.723 257.828 128.462C263.241 132.697 269.971 134.877 276.765 134.593C279.524 134.478 282.412 134.136 285.47 133.774C292.446 132.949 300.354 132.014 309.992 133.353C315.245 134.085 320.073 135.795 324.343 138.437C326.749 139.926 329.042 141.583 331.469 143.337C340.109 149.582 349.043 156.039 364.795 156.35C365.515 156.364 366.155 156.81 366.418 157.48C366.681 158.15 366.515 158.913 365.997 159.412C360.653 164.567 353.206 167.983 343.246 169.844L338.222 177.147C347.568 195.16 351.604 213.216 350.219 230.835C348.921 247.358 342.697 262.989 332.221 276.038C320.108 291.126 303.059 302.154 282.917 307.929C272.639 310.876 261.821 312.348 250.756 312.348ZM196.183 99.2747C196.786 102.023 197.737 104.815 198.668 107.551C199.942 111.294 201.145 114.829 201.474 118.176C201.495 118.388 201.477 118.604 201.422 118.81L198.995 127.897C198.864 128.389 198.528 128.8 198.074 129.029C170.02 143.12 150.286 174.277 147.802 208.406C145.382 241.638 159.217 271.357 185.761 289.941C194.62 296.145 204.859 300.874 216.193 303.998C260.466 316.205 304.92 304.353 329.442 273.808C350.86 247.131 352.729 212.158 334.571 177.856C334.261 177.269 334.302 176.559 334.678 176.013L340.73 167.215C341.001 166.821 341.418 166.553 341.887 166.47C349.48 165.126 355.492 162.879 360.121 159.641C346.011 158.243 337.223 151.892 329.382 146.224C327.008 144.509 324.766 142.888 322.469 141.466C318.623 139.087 314.26 137.545 309.501 136.882C300.316 135.604 292.651 136.511 285.888 137.312C282.762 137.682 279.808 138.032 276.913 138.151C269.261 138.475 261.712 136.024 255.633 131.267C250.448 127.21 247.314 122.806 244.548 118.921L244.08 118.263C239.368 111.661 232.061 107.478 224.033 106.788C221.427 106.564 219.101 106.529 216.851 106.495C209.516 106.384 203.502 106.293 196.183 99.2747Z" fill="#371A45"/>
<path d="M252.105 195.74C249.507 202.269 246.909 208.798 244.311 215.328C244.778 215.779 245.011 216.005 245.477 216.459C248.389 219.256 249.84 220.694 252.756 223.556C259.712 230.667 265.03 240.381 260.734 250.098C258.257 255.702 253.125 259.733 246.804 262.755C241.237 265.417 232.548 266.552 226.592 264.078C226.01 263.86 225.721 263.748 225.144 263.518C223.867 266.727 223.229 268.332 221.953 271.541C220.625 271.013 219.97 270.728 218.675 270.118C219.885 266.891 220.492 265.278 221.714 262.056C211.624 256.049 204.04 243.601 207.639 232.021C207.968 230.965 208.616 229.552 209.542 227.808C213.602 228.871 215.676 229.321 219.873 230.129C217.972 232.753 216.707 235.07 215.981 237.055C213.187 244.688 216.74 252.684 223.863 256.409C226.667 249.058 229.512 241.72 232.397 234.4C223.833 227.237 214.406 215.289 219.555 203.717C224.704 192.143 238.508 185.986 250.83 188.939C251.891 186.399 252.423 185.13 253.491 182.593C254.852 183.039 255.524 183.283 256.852 183.81C255.882 186.248 255.397 187.467 254.426 189.905C267.02 194.814 272.865 209.046 268.517 221.588C264.638 220.293 262.654 219.731 258.625 218.715C259.707 217.273 260.476 215.864 260.97 214.52C263.833 206.737 259.457 198.952 252.105 195.74ZM248.424 194.724C247.969 194.446 247.64 194.277 247.44 194.21C242.372 192.506 238.464 194.66 236.085 200.054C234.397 203.884 236.134 207.833 241.149 212.478C244.03 205.365 245.485 201.814 248.424 194.724ZM227.381 257.891C234.119 259.407 238.92 257.034 241.215 251.657C243.164 247.092 241.237 242.465 235.566 237.312C232.837 244.172 230.109 251.032 227.381 257.891Z" fill="#371A45"/>
<g opacity="0.6">
<path d="M179.1 163.26C179.301 158.907 185.716 143.897 195.05 140.396C204.384 136.896 201.204 149.291 208.204 152.272C215.203 155.252 222.454 151.438 225.095 156.91C227.736 162.383 217.695 180.862 211.247 181.82C205.434 182.684 202.989 175.959 199.039 172.595C193.6 167.962 178.859 168.454 179.1 163.26Z" fill="white"/>
</g>
<g opacity="0.6">
<path d="M236.5 183.171C231.549 190.315 221.916 192.853 223.4 182.153C224.587 173.593 231.583 161.259 238.09 163.125C243.356 164.635 242.162 174.997 236.5 183.171Z" fill="white"/>
</g>
<path d="M342.792 166.443C342.836 166.648 342.874 166.851 342.905 167.052C343.8 172.879 338.699 177.894 332.837 177.266C283.75 172.005 239.67 154.952 198.844 130.236C193.345 126.907 193.705 118.74 199.542 116.048C199.595 116.023 199.648 115.999 199.702 115.975C243.298 141.911 290.691 159.409 342.792 166.443Z" fill="#181A4D"/>
<path d="M335.211 173.11C286.124 167.849 242.044 150.796 201.218 126.08C198.023 124.145 196.81 120.579 197.496 117.401C193.716 120.842 194.08 127.352 198.843 130.236C239.669 154.952 283.749 172.005 332.837 177.266C337.511 177.767 341.698 174.678 342.75 170.451C340.855 172.337 338.128 173.422 335.211 173.11Z" fill="#E6BFFF"/>
<g opacity="0.5">
<path d="M229.661 166.822C229.933 167.132 230.205 167.442 230.47 167.758C230.173 167.802 229.87 167.815 229.566 167.815C229.598 167.492 229.63 167.157 229.661 166.822Z" fill="white"/>
</g>
<path d="M333.848 179.101C333.45 179.101 333.049 179.08 332.647 179.036C286.341 174.074 242.271 158.609 197.921 131.759C194.782 129.859 192.96 126.399 193.166 122.73C193.372 119.063 195.477 115.96 198.795 114.43L198.975 114.348C199.503 114.113 200.114 114.148 200.611 114.444C245.348 141.058 293.264 157.959 343.029 164.678C343.772 164.778 344.373 165.333 344.532 166.065C344.584 166.306 344.628 166.545 344.664 166.781C345.163 170.022 344.128 173.262 341.827 175.672C339.712 177.885 336.855 179.101 333.848 179.101ZM199.64 118.009C197.915 119.06 196.84 120.851 196.723 122.929C196.589 125.316 197.726 127.477 199.766 128.712C243.66 155.286 287.251 170.589 333.027 175.494C335.354 175.748 337.626 174.912 339.251 173.211C340.615 171.783 341.311 169.925 341.215 168.025C291.765 161.165 244.147 144.342 199.64 118.009Z" fill="#371A45"/>
<path d="M211.601 139.427C210.83 139.427 210.12 138.923 209.892 138.147C208.315 132.768 208.253 127.407 209.709 122.213C209.974 121.266 210.956 120.711 211.904 120.978C212.851 121.244 213.404 122.226 213.139 123.174C211.866 127.715 211.924 132.415 213.311 137.144C213.588 138.087 213.047 139.077 212.103 139.354C211.936 139.403 211.767 139.427 211.601 139.427Z" fill="#371A45"/>
<path d="M229.025 148.429C228.235 148.429 227.514 147.899 227.304 147.099C225.914 141.802 225.995 136.53 227.542 131.432C227.828 130.49 228.823 129.959 229.764 130.245C230.706 130.53 231.237 131.525 230.951 132.466C229.598 136.925 229.53 141.544 230.75 146.195C230.999 147.147 230.43 148.12 229.479 148.37C229.327 148.41 229.175 148.429 229.025 148.429Z" fill="#371A45"/>
<path d="M249.846 157.873C249.012 157.873 248.267 157.285 248.1 156.435C247.005 150.876 246.938 145.624 247.9 140.824C248.093 139.86 249.033 139.235 249.996 139.428C250.961 139.621 251.586 140.56 251.393 141.525C250.523 145.863 250.591 150.649 251.595 155.747C251.786 156.712 251.157 157.649 250.192 157.839C250.076 157.862 249.96 157.873 249.846 157.873Z" fill="#371A45"/>
<path d="M273.781 166.571C273.047 166.571 272.359 166.114 272.101 165.382C270.367 160.464 269.813 155.288 270.408 149.557C270.51 148.578 271.381 147.869 272.364 147.969C273.343 148.071 274.054 148.946 273.952 149.925C273.412 155.119 273.906 159.788 275.461 164.197C275.788 165.125 275.301 166.142 274.373 166.469C274.178 166.538 273.978 166.571 273.781 166.571Z" fill="#371A45"/>
<path d="M299.45 172.974C298.835 172.974 298.236 172.654 297.906 172.082C295.19 167.376 294.329 162.444 295.273 157.005C295.441 156.036 296.364 155.388 297.332 155.555C298.302 155.723 298.951 156.645 298.782 157.614C297.987 162.198 298.71 166.348 300.992 170.302C301.483 171.154 301.191 172.244 300.339 172.735C300.059 172.897 299.753 172.974 299.45 172.974Z" fill="#371A45"/>
<path d="M326.931 178.355C326.366 178.355 325.811 178.086 325.465 177.586C322.265 172.958 320.549 168.095 320.363 163.132C320.326 162.149 321.093 161.322 322.076 161.285C323.054 161.259 323.886 162.015 323.923 162.999C324.085 167.333 325.548 171.442 328.395 175.561C328.955 176.37 328.752 177.479 327.943 178.039C327.634 178.252 327.281 178.355 326.931 178.355Z" fill="#371A45"/>
<path d="M114.797 204.443C133.355 216.628 155.806 222.854 181.236 224.517C182.42 224.595 183.593 224.226 184.528 223.494L194.685 215.545C196.081 214.453 198.089 214.458 199.398 215.653C203.297 219.214 201.127 224.6 199.108 231.161C202.578 232.462 206.114 233.099 209.571 234.296C213.256 235.572 216.136 238.629 216.868 242.459C217.789 247.282 215.346 252.219 210.319 256.59C205.488 260.788 199.448 263.366 193.101 264.182C150.878 269.608 120.516 259.583 96.9853 240.66C96.5462 237.984 94.6141 224.516 103.516 213.349C107.32 208.577 111.77 205.897 114.797 204.443Z" fill="white"/>
<path d="M123.004 209.69C118.022 206.726 110.999 209.052 107.844 213.915C104.688 218.778 105.02 225.348 107.625 230.526C109.843 234.936 113.491 238.467 117.4 241.48C132.965 253.473 153.028 258.153 172.636 259.444C187.589 260.428 203.629 259.3 215.749 250.486C211.931 255.551 206.626 259.481 200.669 261.658C195.306 263.619 189.537 264.159 183.835 264.453C169.017 265.217 154.044 264.412 139.61 260.973C125.177 257.534 111.274 251.399 99.6546 242.172C96.5616 239.715 93.514 236.864 92.3028 233.105C91.5263 230.695 91.5729 228.104 91.7124 225.576C92.1173 218.238 93.8105 210.011 100.019 206.079C103.581 203.823 108.105 203.444 112.228 204.331C116.35 205.217 120.133 207.265 123.654 209.584" fill="#E8E8E8"/>
<path d="M96.9844 240.66C102.655 244.221 108.323 247.608 114.202 250.555L116.401 251.665C117.14 252.021 117.891 252.353 118.635 252.698L120.871 253.724C121.245 253.891 121.612 254.074 121.991 254.229L123.134 254.682C124.658 255.286 126.16 255.943 127.698 256.504L132.345 258.103C138.599 260.061 145.017 261.455 151.502 262.381L156.382 262.975C158.01 263.156 159.652 263.223 161.285 263.353L163.739 263.524L166.2 263.576C167.841 263.6 169.48 263.673 171.121 263.657C174.405 263.553 177.689 263.556 180.967 263.275C182.606 263.151 184.249 263.088 185.885 262.915L190.79 262.375C191.598 262.28 192.447 262.209 193.221 262.094C193.995 261.983 194.766 261.848 195.528 261.677C197.054 261.343 198.554 260.896 200.014 260.349C202.932 259.251 205.679 257.71 208.105 255.773C210.531 253.831 212.657 251.515 213.951 248.929C214.583 247.635 214.978 246.275 215.057 244.916C215.099 244.236 215.046 243.559 214.941 242.887C214.821 242.226 214.623 241.583 214.35 240.967C213.81 239.732 212.942 238.629 211.877 237.75C211.344 237.312 210.766 236.919 210.144 236.608C209.524 236.291 208.894 236.062 208.102 235.804C205.084 234.81 201.773 234.098 198.491 232.832L198.482 232.829C197.605 232.498 197.141 231.552 197.396 230.668L197.405 230.637C198.04 228.453 198.716 226.305 199.196 224.245C199.427 223.217 199.607 222.203 199.644 221.257C199.675 220.314 199.561 219.459 199.262 218.745C199.109 218.388 198.922 218.055 198.674 217.748C198.576 217.582 198.409 217.449 198.271 217.301C198.202 217.232 198.125 217.144 198.065 217.089C198.014 217.055 197.973 217.007 197.918 216.98C197.527 216.702 196.952 216.646 196.443 216.823C196.32 216.874 196.195 216.924 196.084 217C196.023 217.028 195.977 217.079 195.919 217.112L195.591 217.368L194.262 218.411L191.602 220.497L186.279 224.666L185.945 224.925L185.548 225.227C185.225 225.458 184.883 225.662 184.525 225.834C183.81 226.18 183.034 226.4 182.24 226.48C181.851 226.521 181.425 226.523 181.062 226.496L180.211 226.427L178.51 226.289C176.24 226.129 173.977 225.86 171.713 225.622C169.456 225.307 167.194 225.041 164.948 224.646C162.695 224.304 160.459 223.855 158.22 223.424C155.992 222.937 153.761 222.464 151.559 221.864C149.344 221.321 147.161 220.649 144.972 220.011C142.804 219.295 140.629 218.61 138.496 217.793C137.421 217.412 136.361 216.99 135.312 216.539C134.263 216.089 133.199 215.68 132.165 215.196L129.081 213.713C128.065 213.196 127.06 212.655 126.063 212.105C122.083 209.885 118.276 207.36 114.797 204.443C118.877 206.439 122.927 208.358 127.035 210.118C128.074 210.532 129.095 210.979 130.125 211.408L133.246 212.61C134.275 213.033 135.336 213.381 136.378 213.77L137.949 214.334L139.536 214.855C141.636 215.594 143.779 216.203 145.909 216.842C148.064 217.405 150.208 218.001 152.386 218.471C154.549 218.999 156.745 219.387 158.925 219.835C161.12 220.217 163.311 220.617 165.521 220.913C169.931 221.555 174.368 222.021 178.819 222.348L180.487 222.471L181.322 222.532C181.521 222.544 181.66 222.54 181.831 222.522C182.158 222.486 182.482 222.392 182.78 222.244C182.929 222.171 183.072 222.084 183.206 221.986L183.811 221.512L189.136 217.347L191.801 215.267L193.133 214.227L193.472 213.963C193.647 213.839 193.816 213.704 194.004 213.599C194.368 213.369 194.766 213.2 195.171 213.057C196.791 212.516 198.699 212.719 200.156 213.76C200.341 213.881 200.505 214.029 200.674 214.171C200.821 214.307 200.93 214.431 201.059 214.563C201.303 214.827 201.562 215.071 201.767 215.383C202.215 215.964 202.579 216.625 202.851 217.308C203.397 218.69 203.518 220.129 203.453 221.431C203.378 222.74 203.133 223.949 202.853 225.113C202.28 227.438 201.489 229.559 200.809 231.684L199.732 229.493L199.74 229.496C202.695 230.571 205.939 231.165 209.256 232.198C210.048 232.444 210.993 232.766 211.859 233.199C212.729 233.624 213.546 234.157 214.304 234.765C215.816 235.981 217.085 237.544 217.907 239.348C218.32 240.246 218.627 241.199 218.814 242.173C218.985 243.141 219.069 244.129 219.022 245.111C218.935 247.077 218.389 248.978 217.584 250.677C215.937 254.086 213.398 256.745 210.664 258.964C207.896 261.187 204.774 262.947 201.471 264.2C199.82 264.829 198.12 265.323 196.396 265.693C195.534 265.881 194.665 266.031 193.792 266.151C192.92 266.276 192.11 266.338 191.266 266.434L186.251 266.964C184.578 267.133 182.893 267.192 181.216 267.311C177.861 267.592 174.487 267.553 171.121 267.616C169.436 267.613 167.751 267.521 166.067 267.476L163.541 267.393L161.018 267.189C159.339 267.037 157.654 266.947 155.979 266.742L150.96 266.073C144.294 264.999 137.704 263.433 131.296 261.295C118.506 257.006 106.466 250.138 96.9844 240.66Z" fill="#371A45"/>
<path d="M147.926 265.499C147.512 265.499 147.096 265.355 146.758 265.063C142.534 261.391 140.25 254.629 140.493 246.509C140.828 235.319 145.589 224.593 152.622 219.184C153.402 218.585 154.52 218.73 155.119 219.51C155.719 220.29 155.573 221.408 154.794 222.008C148.669 226.718 144.353 236.608 144.054 246.616C143.843 253.663 145.681 259.406 149.095 262.373C149.837 263.019 149.916 264.143 149.271 264.886C148.919 265.292 148.424 265.499 147.926 265.499Z" fill="#371A45"/>
<path d="M329.774 68.6825C335.842 83.4524 335.609 96.4205 329.259 97.6489L320.853 99.2749C318.956 99.642 316.723 98.9194 314.365 97.3314C310.108 94.4596 305.435 88.7593 301.572 81.5535C300.42 79.4092 299.341 77.1352 298.365 74.7586C292.298 59.9926 292.531 47.0246 298.881 45.796L307.286 44.1701C313.637 42.9416 323.707 53.9165 329.774 68.6825Z" fill="#CD89FF"/>
<path d="M295.421 53.7054L304.433 51.9543C304.433 51.9543 302.319 54.1618 304.193 60.6545C306.067 67.1472 306.654 69.3091 306.654 69.3091L298.23 70.946C298.23 70.946 295.922 60.3939 295.88 60.1913C295.839 59.9887 295.421 53.7054 295.421 53.7054Z" fill="#C4D414"/>
<path d="M321.947 96.4548C321.947 96.4548 316.732 97.3456 312.607 98.1161C308.432 95.3298 303.849 89.7985 300.06 82.806C303.724 82.104 310.329 80.8382 310.329 80.8382L321.947 96.4548Z" fill="#A5B02A"/>
<path d="M328.036 98.3995C333.577 97.0501 333.722 83.3522 328.361 67.8044C322.999 52.2565 314.161 40.7464 308.62 42.0958C303.079 43.4452 302.933 57.1431 308.295 72.6909C313.656 88.2387 322.495 99.7488 328.036 98.3995Z" fill="#D5B4FB"/>
<path d="M313.613 98.5261C311.917 97.3775 310.163 95.8285 308.395 93.9019C303.987 89.096 299.896 82.4002 296.875 75.0478C293.855 67.6953 292.247 60.5189 292.348 54.8406C292.457 48.7324 294.554 44.9746 298.253 44.2592L306.657 42.633C310.356 41.9176 315.004 44.3705 319.746 49.5402C324.155 54.346 328.246 61.0417 331.266 68.3942C333.335 73.4308 334.768 78.4788 335.41 82.9921C335.524 83.7901 335.613 84.578 335.677 85.334C335.709 85.7137 335.734 86.0917 335.754 86.4573C336.135 93.7496 333.997 98.3881 329.889 99.1829L321.484 100.809C319.164 101.258 316.47 100.46 313.613 98.5261ZM307.911 45.685L299.506 47.3112C297.093 47.7781 295.66 50.7798 295.575 55.5468C295.481 60.8139 296.999 67.5352 299.849 74.4725C302.699 81.4098 306.52 87.6852 310.61 92.143C314.311 96.178 317.817 98.2237 320.23 97.7571L328.635 96.131C331.379 95.6001 332.835 91.7951 332.53 85.953C332.513 85.6182 332.489 85.2718 332.46 84.9232C332.401 84.2254 332.318 83.4966 332.213 82.757C331.609 78.5107 330.253 73.7431 328.292 68.9696C325.442 62.0321 321.621 55.7567 317.532 51.2991C313.832 47.265 310.324 45.2182 307.911 45.685Z" fill="#32356B"/>
<path d="M302.859 60.2579C301.551 54.5603 300.767 44.3155 307.398 43.0507C311.001 42.4832 314.885 45.0678 317.714 47.6855C328.268 57.601 335.976 76.3797 335.256 88.7567C335.011 93.0549 333.111 98.5128 327.656 97.7975C321.009 96.7937 314.91 88.3761 311.764 82.9092C311.541 82.4998 312.08 82.2887 312.339 82.6677C314.919 86.5179 317.926 90.3838 321.649 93.3217C325.379 96.2749 329.674 97.6115 331.802 93.7346C333.528 90.3757 333.278 86.0771 332.712 82.008C331.151 72.5826 327.044 62.7712 320.935 54.2986C318.24 50.6161 312.678 44.3055 308.06 44.8411C303.269 45.5474 302.98 52.9209 303.227 57.0914C303.287 58.1474 303.393 59.2133 303.539 60.2844C303.595 60.7052 302.953 60.6734 302.859 60.2579Z" fill="#32356B"/>
<path d="M326.057 92.6942C330.106 91.7044 329.93 80.8509 325.665 68.4523C321.4 56.0536 314.661 46.805 310.612 47.7947C306.563 48.7845 306.739 59.638 311.004 72.0366C315.269 84.4353 322.008 93.6839 326.057 92.6942Z" fill="#BECB34"/>
<path d="M326.783 68.6122C331.632 80.4045 331.779 90.6927 327.113 91.5948C326.676 91.6791 326.213 91.6778 325.726 91.5988C325.726 91.5988 325.726 91.5988 325.722 91.5995C321.023 90.8083 314.28 82.5623 309.886 71.8781C306.014 62.4626 305.138 54.0024 307.323 50.5194C307.872 49.642 308.613 49.0779 309.553 48.8963C314.219 47.9943 321.935 56.8237 326.783 68.6122Z" fill="#A5B02A"/>
<path d="M324.353 69.9085C328.62 80.2731 329.065 89.4595 325.658 91.7746C325.658 91.7746 325.658 91.7746 325.654 91.7754C320.965 90.9868 314.237 82.767 309.853 72.1168C305.989 62.7311 305.115 54.2978 307.295 50.8257C307.327 50.8154 307.357 50.8096 307.39 50.8032C312.047 49.9039 319.639 58.4583 324.353 69.9085Z" fill="#D9E73C"/>
<path d="M322.317 81.7815L321.492 79.828C320.681 80.1431 319.867 79.9153 319.074 79.1074C318.254 78.2727 317.404 76.8264 316.544 74.7896L316.206 73.9895L318.672 73.1849L318.905 73.7359C319.473 75.0828 319.953 75.6661 320.332 75.4907C320.492 75.4167 320.562 75.2542 320.543 75.0032C320.524 74.7541 320.453 74.4846 320.33 74.1931C320.112 73.6769 319.769 73.194 319.293 72.7367L315.735 69.3427C314.277 67.9579 313.135 66.3393 312.381 64.555C311.974 63.5906 311.754 62.7539 311.722 62.0548C311.691 61.3686 311.804 60.8407 312.056 60.47C312.3 60.1101 312.639 59.9136 313.065 59.8734L312.395 58.2869L313.741 58.6368L314.363 60.1119C315.24 60.4592 316.052 61.1349 316.821 62.1314C317.566 63.0987 318.246 64.3183 318.877 65.8112L316.718 65.8121L316.374 64.9979C316.222 64.6389 316.054 64.3603 315.867 64.1609C315.679 63.9599 315.495 63.852 315.314 63.8384C315.112 63.8231 314.997 63.9024 314.97 64.0776C314.944 64.2541 314.995 64.496 315.124 64.8021C315.309 65.2397 315.82 65.8862 316.634 66.7185L319.778 69.9245C320.204 70.3585 320.634 70.8915 321.069 71.5232C321.498 72.1458 321.886 72.8721 322.24 73.709C322.77 74.9645 323.042 76.0518 323.057 76.9941C323.072 77.9692 322.868 78.7064 322.425 79.1998L323.201 81.0374L322.317 81.7815Z" fill="#1E1E1E"/>
<path d="M244.714 40.8342C257.257 38.4245 269.928 41.0466 273.013 46.687L277.098 54.1522C278.02 55.8376 277.983 57.6047 277.143 59.3171C275.621 62.4072 271.474 65.3231 265.624 67.2684C263.883 67.8484 261.995 68.3431 259.977 68.7309C247.437 71.1401 234.766 68.5179 231.68 62.8776L227.596 55.4124C224.51 49.7719 232.174 43.2434 244.714 40.8342Z" fill="#CD89FF"/>
<path d="M238.572 70.0254L234.378 62.4525C234.378 62.4525 237.024 64.5439 242.495 64.1725C247.965 63.8011 249.798 63.7073 249.798 63.7073L253.719 70.7863C253.719 70.7863 244.616 70.7949 244.441 70.7931C244.266 70.7913 238.572 70.0254 238.572 70.0254Z" fill="#C4D414"/>
<path d="M271.962 48.0307C271.962 48.0307 274.505 52.8955 276.584 56.7574C275.02 59.9529 270.758 62.9668 264.746 64.9756C262.881 61.5426 259.518 55.3529 259.518 55.3529L271.962 48.0307Z" fill="#A5B02A"/>
<path d="M272.467 45.3185C269.479 38.2177 257.357 35.0636 245.391 38.2737C233.425 41.4838 226.146 49.8424 229.134 56.9432C232.121 64.044 244.243 67.198 256.209 63.9879C268.175 60.7779 275.454 52.4193 272.467 45.3185Z" fill="#D5B4FB"/>
<path d="M278.51 60.179C277.9 61.4093 276.918 62.6134 275.573 63.7584C272.219 66.6144 266.936 68.8474 260.696 70.046C254.456 71.2447 247.966 71.2734 242.422 70.1266C236.458 68.893 232.185 66.4059 230.389 63.1234L226.307 55.6635C224.51 52.3807 225.508 48.8813 229.116 45.8092C232.47 42.9532 237.753 40.7203 243.993 39.5216C248.268 38.7005 252.743 38.423 256.934 38.7193C257.675 38.7717 258.414 38.8426 259.129 38.9297C259.488 38.9735 259.848 39.0222 260.197 39.0742C267.165 40.1116 272.305 42.7978 274.3 46.444L278.383 53.9041C279.509 55.9631 279.536 58.1081 278.51 60.179ZM228.897 55.166L232.979 62.6259C234.151 64.7676 237.492 66.5482 242.147 67.5109C247.289 68.5746 253.364 68.5375 259.252 67.4065C265.139 66.2755 270.095 64.1937 273.206 61.5445C276.022 59.1467 276.964 56.5434 275.792 54.4016L271.71 46.9415C270.378 44.506 266.249 42.5558 260.667 41.7246C260.347 41.677 260.018 41.6324 259.688 41.5922C259.028 41.5116 258.345 41.4462 257.658 41.3976C253.715 41.1189 249.489 41.3829 245.438 42.161C239.55 43.2922 234.594 45.3739 231.483 48.023C228.668 50.4201 227.725 53.024 228.897 55.166Z" fill="#32356B"/>
<path d="M245.709 62.4524C240.541 62.501 230.779 61.2471 227.563 55.3366C225.932 52.1466 227.292 49.3088 229 47.3801C235.52 40.2128 251.538 37.1454 263.829 40.0864C268.096 41.1031 273.989 43.7537 274.922 48.2868C275.93 53.786 269.541 57.423 265.147 59.088C264.814 59.2018 264.447 58.7006 264.74 58.5501C267.725 57.0663 270.598 55.2198 272.351 52.5863C274.118 49.9497 274.137 46.5252 269.719 43.9766C265.925 41.8689 261.806 41.2756 258.005 40.9952C249.275 40.5601 240.93 42.2312 234.49 45.8664C231.703 47.4808 227.208 51.0545 229.112 55.1064C231.233 59.3383 238.514 60.9707 242.509 61.5427C243.521 61.6891 244.53 61.799 245.531 61.8755C245.925 61.9067 246.086 62.4496 245.709 62.4524Z" fill="#32356B"/>
<path d="M268.211 46.405C266.004 41.1128 256.418 38.9362 246.801 41.5434C237.183 44.1506 231.176 50.5543 233.383 55.8464C235.59 61.1386 245.175 63.3152 254.793 60.708C264.41 58.1008 270.418 51.6971 268.211 46.405Z" fill="#BECB34"/>
<path d="M246.671 43.5771C256.745 41.6402 266.757 43.4509 269.036 47.6208C269.249 48.0105 269.387 48.4072 269.455 48.81C269.455 48.81 269.455 48.81 269.457 48.8133C270.091 52.6922 264.05 56.9196 254.922 58.6745C246.879 60.2211 238.871 59.3792 234.813 56.8508C233.791 56.2155 233.018 55.4735 232.559 54.6342C230.28 50.4644 236.6 45.5134 246.671 43.5771Z" fill="#A5B02A"/>
<path d="M248.213 45.7043C257.121 43.9905 266.02 45.3483 269.322 48.7252C269.322 48.7252 269.322 48.7252 269.323 48.7285C269.959 52.622 263.901 56.865 254.748 58.6261C246.681 60.1781 238.652 59.3327 234.582 56.7945C234.562 56.7651 234.547 56.7383 234.531 56.7082C232.246 52.5226 238.373 47.5977 248.213 45.7043Z" fill="#D9E73C"/>
<path d="M260.835 50.4205L259.159 50.6867C259.745 51.4583 259.789 52.1097 259.247 52.6098C258.687 53.1266 257.527 53.5303 255.779 53.8078L255.093 53.9169L253.465 51.6043L253.938 51.5293C255.093 51.3458 255.516 51.0652 255.214 50.6976C255.086 50.5424 254.901 50.4452 254.656 50.4044C254.414 50.3638 254.168 50.3635 253.918 50.4032C253.475 50.4735 253.108 50.6596 252.81 50.9663L250.608 53.2624C249.712 54.2051 248.477 54.821 246.946 55.0642C246.119 55.1956 245.357 55.1945 244.669 55.0624C243.994 54.9329 243.429 54.7146 242.974 54.4126C242.533 54.1195 242.224 53.7826 242.041 53.4054L240.68 53.6216L240.58 52.5398L241.846 52.3388C241.899 51.6611 242.303 51.1144 243.042 50.6788C243.759 50.256 244.75 49.9475 246.031 49.744L246.753 51.6078L246.055 51.7188C245.747 51.7677 245.525 51.8497 245.388 51.9653C245.25 52.082 245.204 52.2162 245.25 52.3687C245.303 52.5399 245.421 52.6576 245.604 52.7203C245.789 52.7835 246.014 52.7944 246.277 52.7527C246.652 52.6931 247.127 52.3997 247.686 51.8868L249.839 49.9049C250.13 49.6362 250.519 49.387 251.004 49.1558C251.483 48.928 252.079 48.7582 252.797 48.6442C253.874 48.4732 254.869 48.4863 255.805 48.6887C256.774 48.8981 257.579 49.2432 258.22 49.7382L259.796 49.4878L260.835 50.4205Z" fill="#1E1E1E"/>
</svg>
